G04 #@! TF.FileFunction,Soldermask,Top*
%FSLAX46Y46*%
G04 Gerber Fmt 4.6, Leading zero omitted, Abs format (unit mm)*
G04 Created by KiCad (PCBNEW 4.0.5) date 02/28/17 13:31:52*
%MOMM*%
%LPD*%
G01*
G04 APERTURE LIST*
%ADD10C,0.100000*%
%ADD11C,1.800000*%
%ADD12O,1.700000X4.200000*%
%ADD13O,3.400000X3.400000*%
%ADD14C,4.900000*%
%ADD15C,6.500000*%
G04 APERTURE END LIST*
D10*
D11*
X91025750Y-50475750D03*
X91025750Y-55375750D03*
D12*
X72043750Y-37053750D03*
X79343750Y-37053750D03*
D13*
X50488750Y-46543750D03*
X44563750Y-48063750D03*
X50488750Y-65593750D03*
X44563750Y-67113750D03*
X50488750Y-84643750D03*
X44563750Y-86163750D03*
X50488750Y-103693750D03*
X44563750Y-105213750D03*
X69538750Y-46543750D03*
X63613750Y-48063750D03*
X69538750Y-65593750D03*
X63613750Y-67113750D03*
X69538750Y-84643750D03*
X63613750Y-86163750D03*
X69538750Y-103693750D03*
X63613750Y-105213750D03*
X88588750Y-46543750D03*
X82663750Y-48063750D03*
X88588750Y-65593750D03*
X82663750Y-67113750D03*
X88588750Y-84643750D03*
X82663750Y-86163750D03*
X88588750Y-103693750D03*
X82663750Y-105213750D03*
X107638750Y-46543750D03*
X101713750Y-48063750D03*
X107638750Y-65593750D03*
X101713750Y-67113750D03*
X107638750Y-84643750D03*
X101713750Y-86163750D03*
X107638750Y-103693750D03*
X101713750Y-105213750D03*
D14*
X104233750Y-95775000D03*
X85183750Y-95775000D03*
X66133750Y-95775000D03*
X47083750Y-95775000D03*
X104233750Y-76730000D03*
X85183750Y-76730000D03*
X66133750Y-76730000D03*
X47083750Y-76730000D03*
X104233750Y-57690000D03*
X85183750Y-57690000D03*
X66133750Y-57690000D03*
X47083750Y-57690000D03*
X104233750Y-38630000D03*
X85183750Y-38630000D03*
X66133750Y-38630000D03*
X47083750Y-38630000D03*
D15*
X38193750Y-52481250D03*
X38193750Y-90581250D03*
X113093750Y-71593750D03*
X113093750Y-52593750D03*
X113093750Y-91093750D03*
M02*
