G04 #@! TF.FileFunction,Drawing*
%FSLAX46Y46*%
G04 Gerber Fmt 4.6, Leading zero omitted, Abs format (unit mm)*
G04 Created by KiCad (PCBNEW 4.0.5) date 02/28/17 13:31:52*
%MOMM*%
%LPD*%
G01*
G04 APERTURE LIST*
%ADD10C,0.100000*%
%ADD11C,0.300000*%
%ADD12C,0.200000*%
%ADD13C,0.050000*%
G04 APERTURE END LIST*
D10*
D11*
X57272321Y-63486608D02*
X56558036Y-62986608D01*
X57272321Y-62629465D02*
X55772321Y-62629465D01*
X55772321Y-63200893D01*
X55843750Y-63343751D01*
X55915179Y-63415179D01*
X56058036Y-63486608D01*
X56272321Y-63486608D01*
X56415179Y-63415179D01*
X56486607Y-63343751D01*
X56558036Y-63200893D01*
X56558036Y-62629465D01*
X55843750Y-64915179D02*
X55772321Y-64772322D01*
X55772321Y-64558036D01*
X55843750Y-64343751D01*
X55986607Y-64200893D01*
X56129464Y-64129465D01*
X56415179Y-64058036D01*
X56629464Y-64058036D01*
X56915179Y-64129465D01*
X57058036Y-64200893D01*
X57200893Y-64343751D01*
X57272321Y-64558036D01*
X57272321Y-64700893D01*
X57200893Y-64915179D01*
X57129464Y-64986608D01*
X56629464Y-64986608D01*
X56629464Y-64700893D01*
X56486607Y-66129465D02*
X56558036Y-66343751D01*
X56629464Y-66415179D01*
X56772321Y-66486608D01*
X56986607Y-66486608D01*
X57129464Y-66415179D01*
X57200893Y-66343751D01*
X57272321Y-66200893D01*
X57272321Y-65629465D01*
X55772321Y-65629465D01*
X55772321Y-66129465D01*
X55843750Y-66272322D01*
X55915179Y-66343751D01*
X56058036Y-66415179D01*
X56200893Y-66415179D01*
X56343750Y-66343751D01*
X56415179Y-66272322D01*
X56486607Y-66129465D01*
X56486607Y-65629465D01*
X56486607Y-68772322D02*
X56558036Y-68986608D01*
X56629464Y-69058036D01*
X56772321Y-69129465D01*
X56986607Y-69129465D01*
X57129464Y-69058036D01*
X57200893Y-68986608D01*
X57272321Y-68843750D01*
X57272321Y-68272322D01*
X55772321Y-68272322D01*
X55772321Y-68772322D01*
X55843750Y-68915179D01*
X55915179Y-68986608D01*
X56058036Y-69058036D01*
X56200893Y-69058036D01*
X56343750Y-68986608D01*
X56415179Y-68915179D01*
X56486607Y-68772322D01*
X56486607Y-68272322D01*
X57272321Y-70629465D02*
X56558036Y-70129465D01*
X57272321Y-69772322D02*
X55772321Y-69772322D01*
X55772321Y-70343750D01*
X55843750Y-70486608D01*
X55915179Y-70558036D01*
X56058036Y-70629465D01*
X56272321Y-70629465D01*
X56415179Y-70558036D01*
X56486607Y-70486608D01*
X56558036Y-70343750D01*
X56558036Y-69772322D01*
X57272321Y-71272322D02*
X55772321Y-71272322D01*
X57129464Y-72843751D02*
X57200893Y-72772322D01*
X57272321Y-72558036D01*
X57272321Y-72415179D01*
X57200893Y-72200894D01*
X57058036Y-72058036D01*
X56915179Y-71986608D01*
X56629464Y-71915179D01*
X56415179Y-71915179D01*
X56129464Y-71986608D01*
X55986607Y-72058036D01*
X55843750Y-72200894D01*
X55772321Y-72415179D01*
X55772321Y-72558036D01*
X55843750Y-72772322D01*
X55915179Y-72843751D01*
X57272321Y-73486608D02*
X55772321Y-73486608D01*
X57272321Y-74343751D02*
X56415179Y-73700894D01*
X55772321Y-74343751D02*
X56629464Y-73486608D01*
X57272321Y-76129465D02*
X55772321Y-76129465D01*
X56343750Y-76129465D02*
X56272321Y-76272322D01*
X56272321Y-76558036D01*
X56343750Y-76700893D01*
X56415179Y-76772322D01*
X56558036Y-76843751D01*
X56986607Y-76843751D01*
X57129464Y-76772322D01*
X57200893Y-76700893D01*
X57272321Y-76558036D01*
X57272321Y-76272322D01*
X57200893Y-76129465D01*
X56272321Y-77343751D02*
X57272321Y-77700894D01*
X56272321Y-78058036D02*
X57272321Y-77700894D01*
X57629464Y-77558036D01*
X57700893Y-77486608D01*
X57772321Y-77343751D01*
X57272321Y-79772322D02*
X55772321Y-79772322D01*
X57272321Y-80415179D02*
X56486607Y-80415179D01*
X56343750Y-80343750D01*
X56272321Y-80200893D01*
X56272321Y-79986608D01*
X56343750Y-79843750D01*
X56415179Y-79772322D01*
X57200893Y-81700893D02*
X57272321Y-81558036D01*
X57272321Y-81272322D01*
X57200893Y-81129465D01*
X57058036Y-81058036D01*
X56486607Y-81058036D01*
X56343750Y-81129465D01*
X56272321Y-81272322D01*
X56272321Y-81558036D01*
X56343750Y-81700893D01*
X56486607Y-81772322D01*
X56629464Y-81772322D01*
X56772321Y-81058036D01*
X57272321Y-82629465D02*
X57200893Y-82486607D01*
X57058036Y-82415179D01*
X55772321Y-82415179D01*
X56272321Y-83200893D02*
X57772321Y-83200893D01*
X56343750Y-83200893D02*
X56272321Y-83343750D01*
X56272321Y-83629464D01*
X56343750Y-83772321D01*
X56415179Y-83843750D01*
X56558036Y-83915179D01*
X56986607Y-83915179D01*
X57129464Y-83843750D01*
X57200893Y-83772321D01*
X57272321Y-83629464D01*
X57272321Y-83343750D01*
X57200893Y-83200893D01*
X56700893Y-84558036D02*
X56700893Y-85700893D01*
X57272321Y-87200893D02*
X57272321Y-86343750D01*
X57272321Y-86772322D02*
X55772321Y-86772322D01*
X55986607Y-86629465D01*
X56129464Y-86486607D01*
X56200893Y-86343750D01*
X56272321Y-88486607D02*
X57272321Y-88486607D01*
X55700893Y-88129464D02*
X56772321Y-87772321D01*
X56772321Y-88700893D01*
D12*
X74693750Y-33353750D02*
X76693750Y-33353750D01*
X71843750Y-32853750D02*
X71843750Y-33753750D01*
X79543750Y-32853750D02*
X79543750Y-33753750D01*
X71843750Y-32853750D02*
X79543750Y-32853750D01*
X101733750Y-93675000D02*
X101733750Y-93275000D01*
X101733750Y-96975000D02*
X101733750Y-94575000D01*
X101733750Y-98275000D02*
X101733750Y-97875000D01*
X106733750Y-93675000D02*
X106733750Y-93275000D01*
X106733750Y-96975000D02*
X106733750Y-94575000D01*
X106733750Y-98275000D02*
X106733750Y-97875000D01*
X106733750Y-97875000D02*
X106733750Y-96975000D01*
X101733750Y-97375000D02*
X102708750Y-98275000D01*
X106733750Y-94600000D02*
X106733750Y-93700000D01*
X101733750Y-96975000D02*
X101733750Y-97875000D01*
X101733750Y-93675000D02*
X101733750Y-94575000D01*
X106733750Y-93275000D02*
X101733750Y-93275000D01*
X101734390Y-98274360D02*
X106733110Y-98274360D01*
X82683750Y-93675000D02*
X82683750Y-93275000D01*
X82683750Y-96975000D02*
X82683750Y-94575000D01*
X82683750Y-98275000D02*
X82683750Y-97875000D01*
X87683750Y-93675000D02*
X87683750Y-93275000D01*
X87683750Y-96975000D02*
X87683750Y-94575000D01*
X87683750Y-98275000D02*
X87683750Y-97875000D01*
X87683750Y-97875000D02*
X87683750Y-96975000D01*
X82683750Y-97375000D02*
X83658750Y-98275000D01*
X87683750Y-94600000D02*
X87683750Y-93700000D01*
X82683750Y-96975000D02*
X82683750Y-97875000D01*
X82683750Y-93675000D02*
X82683750Y-94575000D01*
X87683750Y-93275000D02*
X82683750Y-93275000D01*
X82684390Y-98274360D02*
X87683110Y-98274360D01*
X63633750Y-93675000D02*
X63633750Y-93275000D01*
X63633750Y-96975000D02*
X63633750Y-94575000D01*
X63633750Y-98275000D02*
X63633750Y-97875000D01*
X68633750Y-93675000D02*
X68633750Y-93275000D01*
X68633750Y-96975000D02*
X68633750Y-94575000D01*
X68633750Y-98275000D02*
X68633750Y-97875000D01*
X68633750Y-97875000D02*
X68633750Y-96975000D01*
X63633750Y-97375000D02*
X64608750Y-98275000D01*
X68633750Y-94600000D02*
X68633750Y-93700000D01*
X63633750Y-96975000D02*
X63633750Y-97875000D01*
X63633750Y-93675000D02*
X63633750Y-94575000D01*
X68633750Y-93275000D02*
X63633750Y-93275000D01*
X63634390Y-98274360D02*
X68633110Y-98274360D01*
X44583750Y-93675000D02*
X44583750Y-93275000D01*
X44583750Y-96975000D02*
X44583750Y-94575000D01*
X44583750Y-98275000D02*
X44583750Y-97875000D01*
X49583750Y-93675000D02*
X49583750Y-93275000D01*
X49583750Y-96975000D02*
X49583750Y-94575000D01*
X49583750Y-98275000D02*
X49583750Y-97875000D01*
X49583750Y-97875000D02*
X49583750Y-96975000D01*
X44583750Y-97375000D02*
X45558750Y-98275000D01*
X49583750Y-94600000D02*
X49583750Y-93700000D01*
X44583750Y-96975000D02*
X44583750Y-97875000D01*
X44583750Y-93675000D02*
X44583750Y-94575000D01*
X49583750Y-93275000D02*
X44583750Y-93275000D01*
X44584390Y-98274360D02*
X49583110Y-98274360D01*
X101733750Y-74630000D02*
X101733750Y-74230000D01*
X101733750Y-77930000D02*
X101733750Y-75530000D01*
X101733750Y-79230000D02*
X101733750Y-78830000D01*
X106733750Y-74630000D02*
X106733750Y-74230000D01*
X106733750Y-77930000D02*
X106733750Y-75530000D01*
X106733750Y-79230000D02*
X106733750Y-78830000D01*
X106733750Y-78830000D02*
X106733750Y-77930000D01*
X101733750Y-78330000D02*
X102708750Y-79230000D01*
X106733750Y-75555000D02*
X106733750Y-74655000D01*
X101733750Y-77930000D02*
X101733750Y-78830000D01*
X101733750Y-74630000D02*
X101733750Y-75530000D01*
X106733750Y-74230000D02*
X101733750Y-74230000D01*
X101734390Y-79229360D02*
X106733110Y-79229360D01*
X82683750Y-74630000D02*
X82683750Y-74230000D01*
X82683750Y-77930000D02*
X82683750Y-75530000D01*
X82683750Y-79230000D02*
X82683750Y-78830000D01*
X87683750Y-74630000D02*
X87683750Y-74230000D01*
X87683750Y-77930000D02*
X87683750Y-75530000D01*
X87683750Y-79230000D02*
X87683750Y-78830000D01*
X87683750Y-78830000D02*
X87683750Y-77930000D01*
X82683750Y-78330000D02*
X83658750Y-79230000D01*
X87683750Y-75555000D02*
X87683750Y-74655000D01*
X82683750Y-77930000D02*
X82683750Y-78830000D01*
X82683750Y-74630000D02*
X82683750Y-75530000D01*
X87683750Y-74230000D02*
X82683750Y-74230000D01*
X82684390Y-79229360D02*
X87683110Y-79229360D01*
X63633750Y-74630000D02*
X63633750Y-74230000D01*
X63633750Y-77930000D02*
X63633750Y-75530000D01*
X63633750Y-79230000D02*
X63633750Y-78830000D01*
X68633750Y-74630000D02*
X68633750Y-74230000D01*
X68633750Y-77930000D02*
X68633750Y-75530000D01*
X68633750Y-79230000D02*
X68633750Y-78830000D01*
X68633750Y-78830000D02*
X68633750Y-77930000D01*
X63633750Y-78330000D02*
X64608750Y-79230000D01*
X68633750Y-75555000D02*
X68633750Y-74655000D01*
X63633750Y-77930000D02*
X63633750Y-78830000D01*
X63633750Y-74630000D02*
X63633750Y-75530000D01*
X68633750Y-74230000D02*
X63633750Y-74230000D01*
X63634390Y-79229360D02*
X68633110Y-79229360D01*
X44583750Y-74630000D02*
X44583750Y-74230000D01*
X44583750Y-77930000D02*
X44583750Y-75530000D01*
X44583750Y-79230000D02*
X44583750Y-78830000D01*
X49583750Y-74630000D02*
X49583750Y-74230000D01*
X49583750Y-77930000D02*
X49583750Y-75530000D01*
X49583750Y-79230000D02*
X49583750Y-78830000D01*
X49583750Y-78830000D02*
X49583750Y-77930000D01*
X44583750Y-78330000D02*
X45558750Y-79230000D01*
X49583750Y-75555000D02*
X49583750Y-74655000D01*
X44583750Y-77930000D02*
X44583750Y-78830000D01*
X44583750Y-74630000D02*
X44583750Y-75530000D01*
X49583750Y-74230000D02*
X44583750Y-74230000D01*
X44584390Y-79229360D02*
X49583110Y-79229360D01*
X101733750Y-55590000D02*
X101733750Y-55190000D01*
X101733750Y-58890000D02*
X101733750Y-56490000D01*
X101733750Y-60190000D02*
X101733750Y-59790000D01*
X106733750Y-55590000D02*
X106733750Y-55190000D01*
X106733750Y-58890000D02*
X106733750Y-56490000D01*
X106733750Y-60190000D02*
X106733750Y-59790000D01*
X106733750Y-59790000D02*
X106733750Y-58890000D01*
X101733750Y-59290000D02*
X102708750Y-60190000D01*
X106733750Y-56515000D02*
X106733750Y-55615000D01*
X101733750Y-58890000D02*
X101733750Y-59790000D01*
X101733750Y-55590000D02*
X101733750Y-56490000D01*
X106733750Y-55190000D02*
X101733750Y-55190000D01*
X101734390Y-60189360D02*
X106733110Y-60189360D01*
X82683750Y-55590000D02*
X82683750Y-55190000D01*
X82683750Y-58890000D02*
X82683750Y-56490000D01*
X82683750Y-60190000D02*
X82683750Y-59790000D01*
X87683750Y-55590000D02*
X87683750Y-55190000D01*
X87683750Y-58890000D02*
X87683750Y-56490000D01*
X87683750Y-60190000D02*
X87683750Y-59790000D01*
X87683750Y-59790000D02*
X87683750Y-58890000D01*
X82683750Y-59290000D02*
X83658750Y-60190000D01*
X87683750Y-56515000D02*
X87683750Y-55615000D01*
X82683750Y-58890000D02*
X82683750Y-59790000D01*
X82683750Y-55590000D02*
X82683750Y-56490000D01*
X87683750Y-55190000D02*
X82683750Y-55190000D01*
X82684390Y-60189360D02*
X87683110Y-60189360D01*
X63633750Y-55590000D02*
X63633750Y-55190000D01*
X63633750Y-58890000D02*
X63633750Y-56490000D01*
X63633750Y-60190000D02*
X63633750Y-59790000D01*
X68633750Y-55590000D02*
X68633750Y-55190000D01*
X68633750Y-58890000D02*
X68633750Y-56490000D01*
X68633750Y-60190000D02*
X68633750Y-59790000D01*
X68633750Y-59790000D02*
X68633750Y-58890000D01*
X63633750Y-59290000D02*
X64608750Y-60190000D01*
X68633750Y-56515000D02*
X68633750Y-55615000D01*
X63633750Y-58890000D02*
X63633750Y-59790000D01*
X63633750Y-55590000D02*
X63633750Y-56490000D01*
X68633750Y-55190000D02*
X63633750Y-55190000D01*
X63634390Y-60189360D02*
X68633110Y-60189360D01*
X44583750Y-55590000D02*
X44583750Y-55190000D01*
X44583750Y-58890000D02*
X44583750Y-56490000D01*
X44583750Y-60190000D02*
X44583750Y-59790000D01*
X49583750Y-55590000D02*
X49583750Y-55190000D01*
X49583750Y-58890000D02*
X49583750Y-56490000D01*
X49583750Y-60190000D02*
X49583750Y-59790000D01*
X49583750Y-59790000D02*
X49583750Y-58890000D01*
X44583750Y-59290000D02*
X45558750Y-60190000D01*
X49583750Y-56515000D02*
X49583750Y-55615000D01*
X44583750Y-58890000D02*
X44583750Y-59790000D01*
X44583750Y-55590000D02*
X44583750Y-56490000D01*
X49583750Y-55190000D02*
X44583750Y-55190000D01*
X44584390Y-60189360D02*
X49583110Y-60189360D01*
X101733750Y-36530000D02*
X101733750Y-36130000D01*
X101733750Y-39830000D02*
X101733750Y-37430000D01*
X101733750Y-41130000D02*
X101733750Y-40730000D01*
X106733750Y-36530000D02*
X106733750Y-36130000D01*
X106733750Y-39830000D02*
X106733750Y-37430000D01*
X106733750Y-41130000D02*
X106733750Y-40730000D01*
X106733750Y-40730000D02*
X106733750Y-39830000D01*
X101733750Y-40230000D02*
X102708750Y-41130000D01*
X106733750Y-37455000D02*
X106733750Y-36555000D01*
X101733750Y-39830000D02*
X101733750Y-40730000D01*
X101733750Y-36530000D02*
X101733750Y-37430000D01*
X106733750Y-36130000D02*
X101733750Y-36130000D01*
X101734390Y-41129360D02*
X106733110Y-41129360D01*
X82683750Y-36530000D02*
X82683750Y-36130000D01*
X82683750Y-39830000D02*
X82683750Y-37430000D01*
X82683750Y-41130000D02*
X82683750Y-40730000D01*
X87683750Y-36530000D02*
X87683750Y-36130000D01*
X87683750Y-39830000D02*
X87683750Y-37430000D01*
X87683750Y-41130000D02*
X87683750Y-40730000D01*
X87683750Y-40730000D02*
X87683750Y-39830000D01*
X82683750Y-40230000D02*
X83658750Y-41130000D01*
X87683750Y-37455000D02*
X87683750Y-36555000D01*
X82683750Y-39830000D02*
X82683750Y-40730000D01*
X82683750Y-36530000D02*
X82683750Y-37430000D01*
X87683750Y-36130000D02*
X82683750Y-36130000D01*
X82684390Y-41129360D02*
X87683110Y-41129360D01*
X63633750Y-36530000D02*
X63633750Y-36130000D01*
X63633750Y-39830000D02*
X63633750Y-37430000D01*
X63633750Y-41130000D02*
X63633750Y-40730000D01*
X68633750Y-36530000D02*
X68633750Y-36130000D01*
X68633750Y-39830000D02*
X68633750Y-37430000D01*
X68633750Y-41130000D02*
X68633750Y-40730000D01*
X68633750Y-40730000D02*
X68633750Y-39830000D01*
X63633750Y-40230000D02*
X64608750Y-41130000D01*
X68633750Y-37455000D02*
X68633750Y-36555000D01*
X63633750Y-39830000D02*
X63633750Y-40730000D01*
X63633750Y-36530000D02*
X63633750Y-37430000D01*
X68633750Y-36130000D02*
X63633750Y-36130000D01*
X63634390Y-41129360D02*
X68633110Y-41129360D01*
X44583750Y-36530000D02*
X44583750Y-36130000D01*
X44583750Y-39830000D02*
X44583750Y-37430000D01*
X44583750Y-41130000D02*
X44583750Y-40730000D01*
X49583750Y-36530000D02*
X49583750Y-36130000D01*
X49583750Y-39830000D02*
X49583750Y-37430000D01*
X49583750Y-41130000D02*
X49583750Y-40730000D01*
X49583750Y-40730000D02*
X49583750Y-39830000D01*
X44583750Y-40230000D02*
X45558750Y-41130000D01*
X49583750Y-37455000D02*
X49583750Y-36555000D01*
X44583750Y-39830000D02*
X44583750Y-40730000D01*
X44583750Y-36530000D02*
X44583750Y-37430000D01*
X49583750Y-36130000D02*
X44583750Y-36130000D01*
X44584390Y-41129360D02*
X49583110Y-41129360D01*
D13*
X71635750Y-48521750D02*
X71635750Y-56821750D01*
X71635750Y-56821750D02*
X79935750Y-56821750D01*
X79935750Y-56821750D02*
X79935750Y-48521750D01*
X79935750Y-48521750D02*
X71635750Y-48521750D01*
M02*
