M48
;DRILL file {KiCad 4.0.5} date 02/28/17 13:32:10
;FORMAT={-:-/ absolute / metric / decimal}
FMAT,2
METRIC,TZ
T1C1.702
T2C3.988
T3C4.500
%
G90
G05
M71
T1
X42.004Y-43.274
X42.004Y-62.324
X42.004Y-81.374
X42.004Y-100.424
X52.164Y-43.274
X52.164Y-62.324
X52.164Y-81.374
X52.164Y-100.424
X61.054Y-43.274
X61.054Y-62.324
X61.054Y-81.374
X61.054Y-100.424
X71.214Y-43.274
X71.214Y-62.324
X71.214Y-81.374
X71.214Y-100.424
X80.104Y-43.274
X80.104Y-62.324
X80.104Y-81.374
X80.104Y-100.424
X90.264Y-43.274
X90.264Y-62.324
X90.264Y-81.374
X90.264Y-100.424
X99.154Y-43.274
X99.154Y-62.324
X99.154Y-81.374
X99.154Y-100.424
X109.314Y-43.274
X109.314Y-62.324
X109.314Y-81.374
X109.314Y-100.424
T2
X47.084Y-43.274
X47.084Y-62.324
X47.084Y-81.374
X47.084Y-100.424
X66.134Y-43.274
X66.134Y-62.324
X66.134Y-81.374
X66.134Y-100.424
X85.184Y-43.274
X85.184Y-62.324
X85.184Y-81.374
X85.184Y-100.424
X104.234Y-43.274
X104.234Y-62.324
X104.234Y-81.374
X104.234Y-100.424
T3
X47.084Y-38.63
X47.084Y-57.69
X47.084Y-76.73
X47.084Y-95.775
X66.134Y-38.63
X66.134Y-57.69
X66.134Y-76.73
X66.134Y-95.775
X85.184Y-38.63
X85.184Y-57.69
X85.184Y-76.73
X85.184Y-95.775
X104.234Y-38.63
X104.234Y-57.69
X104.234Y-76.73
X104.234Y-95.775
T0
M30
