M48
;DRILL file {KiCad 4.0.5} date 02/28/17 13:32:10
;FORMAT={-:-/ absolute / metric / decimal}
FMAT,2
METRIC,TZ
T1C0.200
T2C0.400
T3C0.700
T4C2.100
T5C2.500
%
G90
G05
M71
T1
X51.656Y-71.722
X54.094Y-96.594
X54.094Y-99.094
X54.45Y-77.564
X54.45Y-79.596
X54.494Y-39.294
X54.494Y-41.394
X54.594Y-58.594
X54.594Y-60.594
X61.094Y-45.394
X61.094Y-49.794
X70.452Y-58.006
X71.976Y-71.722
X71.976Y-77.056
X71.976Y-79.342
X73.094Y-96.594
X73.094Y-99.094
X74.294Y-57.294
X75.094Y-58.094
X75.594Y-57.594
X76.094Y-59.094
X77.286Y-49.272
X77.786Y-49.272
X78.794Y-46.594
X78.894Y-47.994
X78.894Y-49.094
X79.094Y-58.094
X79.994Y-53.694
X80.094Y-46.594
X80.094Y-54.694
X80.294Y-55.194
X81.594Y-58.094
X82.094Y-54.094
X82.294Y-45.094
X83.394Y-54.294
X84.594Y-54.094
X87.094Y-71.594
X88.094Y-50.594
X88.594Y-55.594
X90.094Y-71.594
X91.28Y-60.546
X92.094Y-77.594
X92.094Y-79.594
X92.094Y-96.594
X92.094Y-99.094
X92.55Y-57.752
X92.894Y-35.794
X92.894Y-38.194
X92.894Y-39.394
X105.594Y-50.094
X107.094Y-44.094
X108.552Y-60.8
X108.594Y-88.594
T2
X41.75Y-55.974
X56.736Y-50.64
X56.736Y-52.672
X58.768Y-58.244
X60.546Y-56.228
X62.578Y-59.276
X67.912Y-55.212
X69.434Y-40.28
X70.706Y-48.862
X72.484Y-57.244
X72.484Y-60.8
X73.754Y-64.61
X75.786Y-47.084
X80.612Y-49.878
X81.628Y-36.924
X82.136Y-42.512
X84.422Y-49.37
X98.9Y-48.354
X99.662Y-45.56
X108.552Y-38.702
X109.568Y-79.596
T3
X91.026Y-50.476
X91.026Y-55.376
T3
X72.044Y-35.804G85X72.044Y-38.304
G05
X79.344Y-35.804G85X79.344Y-38.304
G05
T4
X44.564Y-48.064G85X44.564Y-48.064
G05
X44.564Y-67.114G85X44.564Y-67.114
G05
X44.564Y-86.164G85X44.564Y-86.164
G05
X44.564Y-105.214G85X44.564Y-105.214
G05
X50.489Y-46.544G85X50.489Y-46.544
G05
X50.489Y-65.594G85X50.489Y-65.594
G05
X50.489Y-84.644G85X50.489Y-84.644
G05
X50.489Y-103.694G85X50.489Y-103.694
G05
X63.614Y-48.064G85X63.614Y-48.064
G05
X63.614Y-67.114G85X63.614Y-67.114
G05
X63.614Y-86.164G85X63.614Y-86.164
G05
X63.614Y-105.214G85X63.614Y-105.214
G05
X69.539Y-46.544G85X69.539Y-46.544
G05
X69.539Y-65.594G85X69.539Y-65.594
G05
X69.539Y-84.644G85X69.539Y-84.644
G05
X69.539Y-103.694G85X69.539Y-103.694
G05
X82.664Y-48.064G85X82.664Y-48.064
G05
X82.664Y-67.114G85X82.664Y-67.114
G05
X82.664Y-86.164G85X82.664Y-86.164
G05
X82.664Y-105.214G85X82.664Y-105.214
G05
X88.589Y-46.544G85X88.589Y-46.544
G05
X88.589Y-65.594G85X88.589Y-65.594
G05
X88.589Y-84.644G85X88.589Y-84.644
G05
X88.589Y-103.694G85X88.589Y-103.694
G05
X101.714Y-48.064G85X101.714Y-48.064
G05
X101.714Y-67.114G85X101.714Y-67.114
G05
X101.714Y-86.164G85X101.714Y-86.164
G05
X101.714Y-105.214G85X101.714Y-105.214
G05
X107.639Y-46.544G85X107.639Y-46.544
G05
X107.639Y-65.594G85X107.639Y-65.594
G05
X107.639Y-84.644G85X107.639Y-84.644
G05
X107.639Y-103.694G85X107.639Y-103.694
G05
T5
X37.144Y-52.481G85X39.244Y-52.481
G05
X37.144Y-90.581G85X39.244Y-90.581
G05
X112.044Y-52.594G85X114.144Y-52.594
G05
X112.044Y-71.594G85X114.144Y-71.594
G05
X112.044Y-91.094G85X114.144Y-91.094
G05
T0
M30
