G04 #@! TF.FileFunction,Paste,Bot*
%FSLAX46Y46*%
G04 Gerber Fmt 4.6, Leading zero omitted, Abs format (unit mm)*
G04 Created by KiCad (PCBNEW 4.0.5) date 02/28/17 13:31:52*
%MOMM*%
%LPD*%
G01*
G04 APERTURE LIST*
%ADD10C,0.100000*%
%ADD11C,0.381000*%
%ADD12C,1.000000*%
%ADD13R,1.400000X1.200000*%
%ADD14R,1.200000X1.400000*%
%ADD15R,1.000000X1.250000*%
%ADD16R,1.250000X1.000000*%
%ADD17R,0.500000X1.400000*%
%ADD18O,1.300000X3.800000*%
%ADD19R,0.700000X1.300000*%
%ADD20R,1.300000X0.700000*%
%ADD21R,1.000000X1.700000*%
%ADD22R,1.800000X1.400000*%
%ADD23R,0.300000X0.950000*%
%ADD24R,0.950000X0.300000*%
%ADD25R,5.400000X5.400000*%
G04 APERTURE END LIST*
D10*
D11*
G36*
X73785750Y-52971750D02*
X73785750Y-54671750D01*
X75485750Y-54671750D01*
X75485750Y-52971750D01*
X73785750Y-52971750D01*
G37*
X73785750Y-52971750D02*
X73785750Y-54671750D01*
X75485750Y-54671750D01*
X75485750Y-52971750D01*
X73785750Y-52971750D01*
G36*
X75485750Y-50671750D02*
X73785750Y-50671750D01*
X73785750Y-52371750D01*
X75485750Y-52371750D01*
X75485750Y-50671750D01*
G37*
X75485750Y-50671750D02*
X73785750Y-50671750D01*
X73785750Y-52371750D01*
X75485750Y-52371750D01*
X75485750Y-50671750D01*
G36*
X77785750Y-52371750D02*
X77785750Y-50671750D01*
X76085750Y-50671750D01*
X76085750Y-52371750D01*
X77785750Y-52371750D01*
G37*
X77785750Y-52371750D02*
X77785750Y-50671750D01*
X76085750Y-50671750D01*
X76085750Y-52371750D01*
X77785750Y-52371750D01*
G36*
X76085750Y-54671750D02*
X77785750Y-54671750D01*
X77785750Y-52971750D01*
X76085750Y-52971750D01*
X76085750Y-54671750D01*
G37*
X76085750Y-54671750D02*
X77785750Y-54671750D01*
X77785750Y-52971750D01*
X76085750Y-52971750D01*
X76085750Y-54671750D01*
D12*
X83393750Y-54093750D03*
X84643750Y-54093750D03*
X85893750Y-54093750D03*
X82143750Y-54093750D03*
X80893750Y-54093750D03*
D13*
X54449750Y-48529750D03*
X54449750Y-45129750D03*
X41241750Y-66719750D03*
X41241750Y-70119750D03*
X41443750Y-83793750D03*
X41443750Y-87193750D03*
D14*
X47393750Y-107593750D03*
X50793750Y-107593750D03*
D13*
X58767750Y-48529750D03*
X58767750Y-45129750D03*
X60291750Y-66719750D03*
X60291750Y-70119750D03*
X60291750Y-85769750D03*
X60291750Y-89169750D03*
X60291750Y-104057750D03*
X60291750Y-107457750D03*
X93311750Y-47005750D03*
X93311750Y-43605750D03*
X85691750Y-66973750D03*
X85691750Y-70373750D03*
X79341750Y-85769750D03*
X79341750Y-89169750D03*
X79341750Y-104311750D03*
X79341750Y-107711750D03*
X96359750Y-47005750D03*
X96359750Y-43605750D03*
X98391750Y-66719750D03*
X98391750Y-70119750D03*
X98391750Y-85769750D03*
X98391750Y-89169750D03*
X98391750Y-104311750D03*
X98391750Y-107711750D03*
D15*
X94851750Y-50385750D03*
X96851750Y-50385750D03*
X94851750Y-55465750D03*
X96851750Y-55465750D03*
D16*
X69435750Y-49639750D03*
X69435750Y-51639750D03*
D15*
X81897750Y-50639750D03*
X83897750Y-50639750D03*
D16*
X67657750Y-49639750D03*
X67657750Y-51639750D03*
X65879750Y-49639750D03*
X65879750Y-51639750D03*
X85691750Y-51131750D03*
X85691750Y-49131750D03*
X53179750Y-38939750D03*
X53179750Y-36939750D03*
D15*
X90501750Y-35145750D03*
X88501750Y-35145750D03*
D16*
X91279750Y-38939750D03*
X91279750Y-36939750D03*
X110329750Y-38939750D03*
X110329750Y-36939750D03*
X53179750Y-57989750D03*
X53179750Y-55989750D03*
X58767750Y-58243750D03*
X58767750Y-56243750D03*
D15*
X92533750Y-57751750D03*
X90533750Y-57751750D03*
D16*
X110093750Y-58093750D03*
X110093750Y-56093750D03*
X53179750Y-77039750D03*
X53179750Y-75039750D03*
X73499750Y-81865750D03*
X73499750Y-79865750D03*
X91093750Y-77093750D03*
X91093750Y-75093750D03*
X110093750Y-77093750D03*
X110093750Y-75093750D03*
X53093750Y-94093750D03*
X53093750Y-96093750D03*
X72093750Y-94093750D03*
X72093750Y-96093750D03*
X91093750Y-94093750D03*
X91093750Y-96093750D03*
X110093750Y-94093750D03*
X110093750Y-96093750D03*
X77817750Y-45035750D03*
X77817750Y-43035750D03*
D17*
X74093750Y-39453750D03*
X74893750Y-39453750D03*
X75693750Y-39453750D03*
X76493750Y-39453750D03*
X77293750Y-39453750D03*
D18*
X72043750Y-37053750D03*
X79343750Y-37053750D03*
D19*
X73565750Y-66133750D03*
X75465750Y-66133750D03*
X71787750Y-58513750D03*
X73687750Y-58513750D03*
D20*
X74007750Y-44985750D03*
X74007750Y-43085750D03*
X75785750Y-44985750D03*
X75785750Y-43085750D03*
D21*
X77431750Y-74871750D03*
X77431750Y-68571750D03*
X73631750Y-74871750D03*
X73631750Y-68571750D03*
D22*
X107533750Y-94125000D03*
X107533750Y-97425000D03*
X100933750Y-97425000D03*
X100933750Y-94125000D03*
X88483750Y-94125000D03*
X88483750Y-97425000D03*
X81883750Y-97425000D03*
X81883750Y-94125000D03*
X69433750Y-94125000D03*
X69433750Y-97425000D03*
X62833750Y-97425000D03*
X62833750Y-94125000D03*
X50383750Y-94125000D03*
X50383750Y-97425000D03*
X43783750Y-97425000D03*
X43783750Y-94125000D03*
X107533750Y-75080000D03*
X107533750Y-78380000D03*
X100933750Y-78380000D03*
X100933750Y-75080000D03*
X88483750Y-75080000D03*
X88483750Y-78380000D03*
X81883750Y-78380000D03*
X81883750Y-75080000D03*
X69433750Y-75080000D03*
X69433750Y-78380000D03*
X62833750Y-78380000D03*
X62833750Y-75080000D03*
X50383750Y-75080000D03*
X50383750Y-78380000D03*
X43783750Y-78380000D03*
X43783750Y-75080000D03*
X107533750Y-56040000D03*
X107533750Y-59340000D03*
X100933750Y-59340000D03*
X100933750Y-56040000D03*
X88483750Y-56040000D03*
X88483750Y-59340000D03*
X81883750Y-59340000D03*
X81883750Y-56040000D03*
X69433750Y-56040000D03*
X69433750Y-59340000D03*
X62833750Y-59340000D03*
X62833750Y-56040000D03*
X50383750Y-56040000D03*
X50383750Y-59340000D03*
X43783750Y-59340000D03*
X43783750Y-56040000D03*
X107533750Y-36980000D03*
X107533750Y-40280000D03*
X100933750Y-40280000D03*
X100933750Y-36980000D03*
X88483750Y-36980000D03*
X88483750Y-40280000D03*
X81883750Y-40280000D03*
X81883750Y-36980000D03*
X69433750Y-36980000D03*
X69433750Y-40280000D03*
X62833750Y-40280000D03*
X62833750Y-36980000D03*
X50383750Y-36980000D03*
X50383750Y-40280000D03*
X43783750Y-40280000D03*
X43783750Y-36980000D03*
D23*
X73285750Y-49271750D03*
X73785750Y-49271750D03*
X74285750Y-49271750D03*
X74785750Y-49271750D03*
X75285750Y-49271750D03*
X75785750Y-49271750D03*
X76285750Y-49271750D03*
X76785750Y-49271750D03*
X77285750Y-49271750D03*
X77785750Y-49271750D03*
X78285750Y-49271750D03*
D24*
X79185750Y-50171750D03*
X79185750Y-50671750D03*
X79185750Y-51171750D03*
X79185750Y-51671750D03*
X79185750Y-52171750D03*
X79185750Y-52671750D03*
X79185750Y-53171750D03*
X79185750Y-53671750D03*
X79185750Y-54171750D03*
X79185750Y-54671750D03*
X79185750Y-55171750D03*
D23*
X78285750Y-56071750D03*
X77785750Y-56071750D03*
X77285750Y-56071750D03*
X76785750Y-56071750D03*
X76285750Y-56071750D03*
X75785750Y-56071750D03*
X75285750Y-56071750D03*
X74785750Y-56071750D03*
X74285750Y-56071750D03*
X73785750Y-56071750D03*
X73285750Y-56071750D03*
D24*
X72385750Y-55171750D03*
X72385750Y-54671750D03*
X72385750Y-54171750D03*
X72385750Y-53671750D03*
X72385750Y-53171750D03*
X72385750Y-52671750D03*
X72385750Y-52171750D03*
X72385750Y-51671750D03*
X72385750Y-51171750D03*
X72385750Y-50671750D03*
X72385750Y-50171750D03*
D25*
X75785750Y-52671750D03*
D12*
X77643750Y-48043750D03*
X77643750Y-46543750D03*
X78893750Y-48043750D03*
X78893750Y-46543750D03*
X80143750Y-48043750D03*
X80143750Y-46543750D03*
M02*
