G04 #@! TF.FileFunction,Legend,Bot*
%FSLAX46Y46*%
G04 Gerber Fmt 4.6, Leading zero omitted, Abs format (unit mm)*
G04 Created by KiCad (PCBNEW 4.0.5) date 02/28/17 13:31:52*
%MOMM*%
%LPD*%
G01*
G04 APERTURE LIST*
%ADD10C,0.100000*%
%ADD11C,0.150000*%
%ADD12C,0.200000*%
%ADD13C,0.120000*%
%ADD14C,0.050000*%
%ADD15C,0.304800*%
G04 APERTURE END LIST*
D10*
D11*
X93225750Y-50125750D02*
X93225750Y-55725750D01*
X88825750Y-55725750D02*
X88825750Y-50125750D01*
X91025750Y-57925750D02*
G75*
G02X88825750Y-55725750I0J2200000D01*
G01*
X93225750Y-55725750D02*
G75*
G02X91025750Y-57925750I-2200000J0D01*
G01*
X91025750Y-47925750D02*
G75*
G02X93225750Y-50125750I0J-2200000D01*
G01*
X88825750Y-50125750D02*
G75*
G02X91025750Y-47925750I2200000J0D01*
G01*
D12*
X55649750Y-43754750D02*
X53249750Y-43754750D01*
X53249750Y-44529750D02*
X55649750Y-44529750D01*
X53249750Y-43904750D02*
X55649750Y-43904750D01*
X53249750Y-43629750D02*
X53249750Y-49629750D01*
X53249750Y-49629750D02*
X55649750Y-49629750D01*
X55649750Y-49629750D02*
X55649750Y-43629750D01*
X55649750Y-43629750D02*
X53249750Y-43629750D01*
X40041750Y-71494750D02*
X42441750Y-71494750D01*
X42441750Y-70719750D02*
X40041750Y-70719750D01*
X42441750Y-71344750D02*
X40041750Y-71344750D01*
X42441750Y-71619750D02*
X42441750Y-65619750D01*
X42441750Y-65619750D02*
X40041750Y-65619750D01*
X40041750Y-65619750D02*
X40041750Y-71619750D01*
X40041750Y-71619750D02*
X42441750Y-71619750D01*
X40243750Y-88568750D02*
X42643750Y-88568750D01*
X42643750Y-87793750D02*
X40243750Y-87793750D01*
X42643750Y-88418750D02*
X40243750Y-88418750D01*
X42643750Y-88693750D02*
X42643750Y-82693750D01*
X42643750Y-82693750D02*
X40243750Y-82693750D01*
X40243750Y-82693750D02*
X40243750Y-88693750D01*
X40243750Y-88693750D02*
X42643750Y-88693750D01*
X52168750Y-108793750D02*
X52168750Y-106393750D01*
X51393750Y-106393750D02*
X51393750Y-108793750D01*
X52018750Y-106393750D02*
X52018750Y-108793750D01*
X52293750Y-106393750D02*
X46293750Y-106393750D01*
X46293750Y-106393750D02*
X46293750Y-108793750D01*
X46293750Y-108793750D02*
X52293750Y-108793750D01*
X52293750Y-108793750D02*
X52293750Y-106393750D01*
X59967750Y-43754750D02*
X57567750Y-43754750D01*
X57567750Y-44529750D02*
X59967750Y-44529750D01*
X57567750Y-43904750D02*
X59967750Y-43904750D01*
X57567750Y-43629750D02*
X57567750Y-49629750D01*
X57567750Y-49629750D02*
X59967750Y-49629750D01*
X59967750Y-49629750D02*
X59967750Y-43629750D01*
X59967750Y-43629750D02*
X57567750Y-43629750D01*
X59091750Y-71494750D02*
X61491750Y-71494750D01*
X61491750Y-70719750D02*
X59091750Y-70719750D01*
X61491750Y-71344750D02*
X59091750Y-71344750D01*
X61491750Y-71619750D02*
X61491750Y-65619750D01*
X61491750Y-65619750D02*
X59091750Y-65619750D01*
X59091750Y-65619750D02*
X59091750Y-71619750D01*
X59091750Y-71619750D02*
X61491750Y-71619750D01*
X59091750Y-90544750D02*
X61491750Y-90544750D01*
X61491750Y-89769750D02*
X59091750Y-89769750D01*
X61491750Y-90394750D02*
X59091750Y-90394750D01*
X61491750Y-90669750D02*
X61491750Y-84669750D01*
X61491750Y-84669750D02*
X59091750Y-84669750D01*
X59091750Y-84669750D02*
X59091750Y-90669750D01*
X59091750Y-90669750D02*
X61491750Y-90669750D01*
X59091750Y-108832750D02*
X61491750Y-108832750D01*
X61491750Y-108057750D02*
X59091750Y-108057750D01*
X61491750Y-108682750D02*
X59091750Y-108682750D01*
X61491750Y-108957750D02*
X61491750Y-102957750D01*
X61491750Y-102957750D02*
X59091750Y-102957750D01*
X59091750Y-102957750D02*
X59091750Y-108957750D01*
X59091750Y-108957750D02*
X61491750Y-108957750D01*
X94511750Y-42230750D02*
X92111750Y-42230750D01*
X92111750Y-43005750D02*
X94511750Y-43005750D01*
X92111750Y-42380750D02*
X94511750Y-42380750D01*
X92111750Y-42105750D02*
X92111750Y-48105750D01*
X92111750Y-48105750D02*
X94511750Y-48105750D01*
X94511750Y-48105750D02*
X94511750Y-42105750D01*
X94511750Y-42105750D02*
X92111750Y-42105750D01*
X84491750Y-71748750D02*
X86891750Y-71748750D01*
X86891750Y-70973750D02*
X84491750Y-70973750D01*
X86891750Y-71598750D02*
X84491750Y-71598750D01*
X86891750Y-71873750D02*
X86891750Y-65873750D01*
X86891750Y-65873750D02*
X84491750Y-65873750D01*
X84491750Y-65873750D02*
X84491750Y-71873750D01*
X84491750Y-71873750D02*
X86891750Y-71873750D01*
X78141750Y-90544750D02*
X80541750Y-90544750D01*
X80541750Y-89769750D02*
X78141750Y-89769750D01*
X80541750Y-90394750D02*
X78141750Y-90394750D01*
X80541750Y-90669750D02*
X80541750Y-84669750D01*
X80541750Y-84669750D02*
X78141750Y-84669750D01*
X78141750Y-84669750D02*
X78141750Y-90669750D01*
X78141750Y-90669750D02*
X80541750Y-90669750D01*
X78141750Y-109086750D02*
X80541750Y-109086750D01*
X80541750Y-108311750D02*
X78141750Y-108311750D01*
X80541750Y-108936750D02*
X78141750Y-108936750D01*
X80541750Y-109211750D02*
X80541750Y-103211750D01*
X80541750Y-103211750D02*
X78141750Y-103211750D01*
X78141750Y-103211750D02*
X78141750Y-109211750D01*
X78141750Y-109211750D02*
X80541750Y-109211750D01*
X97559750Y-42230750D02*
X95159750Y-42230750D01*
X95159750Y-43005750D02*
X97559750Y-43005750D01*
X95159750Y-42380750D02*
X97559750Y-42380750D01*
X95159750Y-42105750D02*
X95159750Y-48105750D01*
X95159750Y-48105750D02*
X97559750Y-48105750D01*
X97559750Y-48105750D02*
X97559750Y-42105750D01*
X97559750Y-42105750D02*
X95159750Y-42105750D01*
X97191750Y-71494750D02*
X99591750Y-71494750D01*
X99591750Y-70719750D02*
X97191750Y-70719750D01*
X99591750Y-71344750D02*
X97191750Y-71344750D01*
X99591750Y-71619750D02*
X99591750Y-65619750D01*
X99591750Y-65619750D02*
X97191750Y-65619750D01*
X97191750Y-65619750D02*
X97191750Y-71619750D01*
X97191750Y-71619750D02*
X99591750Y-71619750D01*
X97191750Y-90544750D02*
X99591750Y-90544750D01*
X99591750Y-89769750D02*
X97191750Y-89769750D01*
X99591750Y-90394750D02*
X97191750Y-90394750D01*
X99591750Y-90669750D02*
X99591750Y-84669750D01*
X99591750Y-84669750D02*
X97191750Y-84669750D01*
X97191750Y-84669750D02*
X97191750Y-90669750D01*
X97191750Y-90669750D02*
X99591750Y-90669750D01*
X97191750Y-109086750D02*
X99591750Y-109086750D01*
X99591750Y-108311750D02*
X97191750Y-108311750D01*
X99591750Y-108936750D02*
X97191750Y-108936750D01*
X99591750Y-109211750D02*
X99591750Y-103211750D01*
X99591750Y-103211750D02*
X97191750Y-103211750D01*
X97191750Y-103211750D02*
X97191750Y-109211750D01*
X97191750Y-109211750D02*
X99591750Y-109211750D01*
D13*
X96351750Y-51235750D02*
X95351750Y-51235750D01*
X95351750Y-49535750D02*
X96351750Y-49535750D01*
X96351750Y-56315750D02*
X95351750Y-56315750D01*
X95351750Y-54615750D02*
X96351750Y-54615750D01*
X68585750Y-51139750D02*
X68585750Y-50139750D01*
X70285750Y-50139750D02*
X70285750Y-51139750D01*
X83397750Y-51489750D02*
X82397750Y-51489750D01*
X82397750Y-49789750D02*
X83397750Y-49789750D01*
X66807750Y-51139750D02*
X66807750Y-50139750D01*
X68507750Y-50139750D02*
X68507750Y-51139750D01*
X65029750Y-51139750D02*
X65029750Y-50139750D01*
X66729750Y-50139750D02*
X66729750Y-51139750D01*
X86541750Y-49631750D02*
X86541750Y-50631750D01*
X84841750Y-50631750D02*
X84841750Y-49631750D01*
X54029750Y-37439750D02*
X54029750Y-38439750D01*
X52329750Y-38439750D02*
X52329750Y-37439750D01*
X89001750Y-34295750D02*
X90001750Y-34295750D01*
X90001750Y-35995750D02*
X89001750Y-35995750D01*
X92129750Y-37439750D02*
X92129750Y-38439750D01*
X90429750Y-38439750D02*
X90429750Y-37439750D01*
X111179750Y-37439750D02*
X111179750Y-38439750D01*
X109479750Y-38439750D02*
X109479750Y-37439750D01*
X54029750Y-56489750D02*
X54029750Y-57489750D01*
X52329750Y-57489750D02*
X52329750Y-56489750D01*
X59617750Y-56743750D02*
X59617750Y-57743750D01*
X57917750Y-57743750D02*
X57917750Y-56743750D01*
X91033750Y-56901750D02*
X92033750Y-56901750D01*
X92033750Y-58601750D02*
X91033750Y-58601750D01*
X110943750Y-56593750D02*
X110943750Y-57593750D01*
X109243750Y-57593750D02*
X109243750Y-56593750D01*
X54029750Y-75539750D02*
X54029750Y-76539750D01*
X52329750Y-76539750D02*
X52329750Y-75539750D01*
X74349750Y-80365750D02*
X74349750Y-81365750D01*
X72649750Y-81365750D02*
X72649750Y-80365750D01*
X91943750Y-75593750D02*
X91943750Y-76593750D01*
X90243750Y-76593750D02*
X90243750Y-75593750D01*
X110943750Y-75593750D02*
X110943750Y-76593750D01*
X109243750Y-76593750D02*
X109243750Y-75593750D01*
X52243750Y-95593750D02*
X52243750Y-94593750D01*
X53943750Y-94593750D02*
X53943750Y-95593750D01*
X71243750Y-95593750D02*
X71243750Y-94593750D01*
X72943750Y-94593750D02*
X72943750Y-95593750D01*
X90243750Y-95593750D02*
X90243750Y-94593750D01*
X91943750Y-94593750D02*
X91943750Y-95593750D01*
X109243750Y-95593750D02*
X109243750Y-94593750D01*
X110943750Y-94593750D02*
X110943750Y-95593750D01*
X78667750Y-43535750D02*
X78667750Y-44535750D01*
X76967750Y-44535750D02*
X76967750Y-43535750D01*
D12*
X79543750Y-39853750D02*
X79543750Y-33353750D01*
X71843750Y-39853750D02*
X71843750Y-33353750D01*
X71843750Y-39853750D02*
X79543750Y-39853750D01*
D13*
X75115750Y-65253750D02*
X73915750Y-65253750D01*
X73915750Y-67013750D02*
X75115750Y-67013750D01*
X73337750Y-57633750D02*
X72137750Y-57633750D01*
X72137750Y-59393750D02*
X73337750Y-59393750D01*
X73127750Y-43435750D02*
X73127750Y-44635750D01*
X74887750Y-44635750D02*
X74887750Y-43435750D01*
X74905750Y-43435750D02*
X74905750Y-44635750D01*
X76665750Y-44635750D02*
X76665750Y-43435750D01*
X73231750Y-73421750D02*
X72781750Y-72971750D01*
X73231750Y-70021750D02*
X72781750Y-70471750D01*
X77831750Y-70021750D02*
X78281750Y-70471750D01*
X77831750Y-73421750D02*
X78281750Y-72971750D01*
X76531750Y-68971750D02*
X74531750Y-68971750D01*
X72781750Y-72971750D02*
X72781750Y-70471750D01*
X76531750Y-74471750D02*
X74531750Y-74471750D01*
X78281750Y-72971750D02*
X78281750Y-70471750D01*
D12*
X105233750Y-98275000D02*
X103233750Y-98275000D01*
X101733750Y-96275000D02*
X101733750Y-95275000D01*
X105233750Y-93275000D02*
X103233750Y-93275000D01*
X106733750Y-96275000D02*
X106733750Y-95275000D01*
X86183750Y-98275000D02*
X84183750Y-98275000D01*
X82683750Y-96275000D02*
X82683750Y-95275000D01*
X86183750Y-93275000D02*
X84183750Y-93275000D01*
X87683750Y-96275000D02*
X87683750Y-95275000D01*
X67133750Y-98275000D02*
X65133750Y-98275000D01*
X63633750Y-96275000D02*
X63633750Y-95275000D01*
X67133750Y-93275000D02*
X65133750Y-93275000D01*
X68633750Y-96275000D02*
X68633750Y-95275000D01*
X48083750Y-98275000D02*
X46083750Y-98275000D01*
X44583750Y-96275000D02*
X44583750Y-95275000D01*
X48083750Y-93275000D02*
X46083750Y-93275000D01*
X49583750Y-96275000D02*
X49583750Y-95275000D01*
X105233750Y-79230000D02*
X103233750Y-79230000D01*
X101733750Y-77230000D02*
X101733750Y-76230000D01*
X105233750Y-74230000D02*
X103233750Y-74230000D01*
X106733750Y-77230000D02*
X106733750Y-76230000D01*
X86183750Y-79230000D02*
X84183750Y-79230000D01*
X82683750Y-77230000D02*
X82683750Y-76230000D01*
X86183750Y-74230000D02*
X84183750Y-74230000D01*
X87683750Y-77230000D02*
X87683750Y-76230000D01*
X67133750Y-79230000D02*
X65133750Y-79230000D01*
X63633750Y-77230000D02*
X63633750Y-76230000D01*
X67133750Y-74230000D02*
X65133750Y-74230000D01*
X68633750Y-77230000D02*
X68633750Y-76230000D01*
X48083750Y-79230000D02*
X46083750Y-79230000D01*
X44583750Y-77230000D02*
X44583750Y-76230000D01*
X48083750Y-74230000D02*
X46083750Y-74230000D01*
X49583750Y-77230000D02*
X49583750Y-76230000D01*
X105233750Y-60190000D02*
X103233750Y-60190000D01*
X101733750Y-58190000D02*
X101733750Y-57190000D01*
X105233750Y-55190000D02*
X103233750Y-55190000D01*
X106733750Y-58190000D02*
X106733750Y-57190000D01*
X86183750Y-60190000D02*
X84183750Y-60190000D01*
X82683750Y-58190000D02*
X82683750Y-57190000D01*
X86183750Y-55190000D02*
X84183750Y-55190000D01*
X87683750Y-58190000D02*
X87683750Y-57190000D01*
X67133750Y-60190000D02*
X65133750Y-60190000D01*
X63633750Y-58190000D02*
X63633750Y-57190000D01*
X67133750Y-55190000D02*
X65133750Y-55190000D01*
X68633750Y-58190000D02*
X68633750Y-57190000D01*
X48083750Y-60190000D02*
X46083750Y-60190000D01*
X44583750Y-58190000D02*
X44583750Y-57190000D01*
X48083750Y-55190000D02*
X46083750Y-55190000D01*
X49583750Y-58190000D02*
X49583750Y-57190000D01*
X105233750Y-41130000D02*
X103233750Y-41130000D01*
X101733750Y-39130000D02*
X101733750Y-38130000D01*
X105233750Y-36130000D02*
X103233750Y-36130000D01*
X106733750Y-39130000D02*
X106733750Y-38130000D01*
X86183750Y-41130000D02*
X84183750Y-41130000D01*
X82683750Y-39130000D02*
X82683750Y-38130000D01*
X86183750Y-36130000D02*
X84183750Y-36130000D01*
X87683750Y-39130000D02*
X87683750Y-38130000D01*
X67133750Y-41130000D02*
X65133750Y-41130000D01*
X63633750Y-39130000D02*
X63633750Y-38130000D01*
X67133750Y-36130000D02*
X65133750Y-36130000D01*
X68633750Y-39130000D02*
X68633750Y-38130000D01*
X48083750Y-41130000D02*
X46083750Y-41130000D01*
X44583750Y-39130000D02*
X44583750Y-38130000D01*
X48083750Y-36130000D02*
X46083750Y-36130000D01*
X49583750Y-39130000D02*
X49583750Y-38130000D01*
X72285750Y-49771750D02*
X72285750Y-49621750D01*
X72285750Y-49621750D02*
X72735750Y-49171750D01*
X72735750Y-49171750D02*
X72885750Y-49171750D01*
X72285750Y-55571750D02*
X72285750Y-56171750D01*
X72285750Y-56171750D02*
X72885750Y-56171750D01*
X79285750Y-49771750D02*
X79285750Y-49171750D01*
X79285750Y-49171750D02*
X78685750Y-49171750D01*
X78685750Y-56171750D02*
X79285750Y-56171750D01*
X79285750Y-56171750D02*
X79285750Y-55571750D01*
D14*
G36*
X73285750Y-48371750D02*
X73185750Y-48471750D01*
X73285750Y-48571750D01*
X73385750Y-48471750D01*
X73285750Y-48371750D01*
G37*
X73285750Y-48371750D02*
X73185750Y-48471750D01*
X73285750Y-48571750D01*
X73385750Y-48471750D01*
X73285750Y-48371750D01*
X73427170Y-48471750D02*
G75*
G03X73427170Y-48471750I-141420J0D01*
G01*
D13*
X88497843Y-52625230D02*
X90725230Y-50397843D01*
X90725230Y-50397843D02*
X93553657Y-53226270D01*
D11*
X91946131Y-49384226D02*
X92946131Y-50050893D01*
X91946131Y-50050893D02*
X92946131Y-49384226D01*
X92041369Y-50384226D02*
X91993750Y-50431845D01*
X91946131Y-50527083D01*
X91946131Y-50765179D01*
X91993750Y-50860417D01*
X92041369Y-50908036D01*
X92136607Y-50955655D01*
X92231845Y-50955655D01*
X92374702Y-50908036D01*
X92946131Y-50336607D01*
X92946131Y-50955655D01*
X54811655Y-46239274D02*
X54011655Y-46239274D01*
X54011655Y-46429750D01*
X54049750Y-46544036D01*
X54125940Y-46620227D01*
X54202131Y-46658322D01*
X54354512Y-46696417D01*
X54468798Y-46696417D01*
X54621179Y-46658322D01*
X54697369Y-46620227D01*
X54773560Y-46544036D01*
X54811655Y-46429750D01*
X54811655Y-46239274D01*
X54811655Y-47458322D02*
X54811655Y-47001179D01*
X54811655Y-47229750D02*
X54011655Y-47229750D01*
X54125940Y-47153560D01*
X54202131Y-47077369D01*
X54240226Y-47001179D01*
X39678655Y-67829274D02*
X38878655Y-67829274D01*
X38878655Y-68019750D01*
X38916750Y-68134036D01*
X38992940Y-68210227D01*
X39069131Y-68248322D01*
X39221512Y-68286417D01*
X39335798Y-68286417D01*
X39488179Y-68248322D01*
X39564369Y-68210227D01*
X39640560Y-68134036D01*
X39678655Y-68019750D01*
X39678655Y-67829274D01*
X38954845Y-68591179D02*
X38916750Y-68629274D01*
X38878655Y-68705465D01*
X38878655Y-68895941D01*
X38916750Y-68972131D01*
X38954845Y-69010227D01*
X39031036Y-69048322D01*
X39107226Y-69048322D01*
X39221512Y-69010227D01*
X39678655Y-68553084D01*
X39678655Y-69048322D01*
X39880655Y-84903274D02*
X39080655Y-84903274D01*
X39080655Y-85093750D01*
X39118750Y-85208036D01*
X39194940Y-85284227D01*
X39271131Y-85322322D01*
X39423512Y-85360417D01*
X39537798Y-85360417D01*
X39690179Y-85322322D01*
X39766369Y-85284227D01*
X39842560Y-85208036D01*
X39880655Y-85093750D01*
X39880655Y-84903274D01*
X39080655Y-85627084D02*
X39080655Y-86122322D01*
X39385417Y-85855655D01*
X39385417Y-85969941D01*
X39423512Y-86046131D01*
X39461607Y-86084227D01*
X39537798Y-86122322D01*
X39728274Y-86122322D01*
X39804464Y-86084227D01*
X39842560Y-86046131D01*
X39880655Y-85969941D01*
X39880655Y-85741369D01*
X39842560Y-85665179D01*
X39804464Y-85627084D01*
X49684226Y-109880655D02*
X49684226Y-109080655D01*
X49493750Y-109080655D01*
X49379464Y-109118750D01*
X49303273Y-109194940D01*
X49265178Y-109271131D01*
X49227083Y-109423512D01*
X49227083Y-109537798D01*
X49265178Y-109690179D01*
X49303273Y-109766369D01*
X49379464Y-109842560D01*
X49493750Y-109880655D01*
X49684226Y-109880655D01*
X48541369Y-109347321D02*
X48541369Y-109880655D01*
X48731845Y-109042560D02*
X48922321Y-109613988D01*
X48427083Y-109613988D01*
X59129655Y-46239274D02*
X58329655Y-46239274D01*
X58329655Y-46429750D01*
X58367750Y-46544036D01*
X58443940Y-46620227D01*
X58520131Y-46658322D01*
X58672512Y-46696417D01*
X58786798Y-46696417D01*
X58939179Y-46658322D01*
X59015369Y-46620227D01*
X59091560Y-46544036D01*
X59129655Y-46429750D01*
X59129655Y-46239274D01*
X58329655Y-47420227D02*
X58329655Y-47039274D01*
X58710607Y-47001179D01*
X58672512Y-47039274D01*
X58634417Y-47115465D01*
X58634417Y-47305941D01*
X58672512Y-47382131D01*
X58710607Y-47420227D01*
X58786798Y-47458322D01*
X58977274Y-47458322D01*
X59053464Y-47420227D01*
X59091560Y-47382131D01*
X59129655Y-47305941D01*
X59129655Y-47115465D01*
X59091560Y-47039274D01*
X59053464Y-47001179D01*
X58728655Y-67829274D02*
X57928655Y-67829274D01*
X57928655Y-68019750D01*
X57966750Y-68134036D01*
X58042940Y-68210227D01*
X58119131Y-68248322D01*
X58271512Y-68286417D01*
X58385798Y-68286417D01*
X58538179Y-68248322D01*
X58614369Y-68210227D01*
X58690560Y-68134036D01*
X58728655Y-68019750D01*
X58728655Y-67829274D01*
X57928655Y-68972131D02*
X57928655Y-68819750D01*
X57966750Y-68743560D01*
X58004845Y-68705465D01*
X58119131Y-68629274D01*
X58271512Y-68591179D01*
X58576274Y-68591179D01*
X58652464Y-68629274D01*
X58690560Y-68667369D01*
X58728655Y-68743560D01*
X58728655Y-68895941D01*
X58690560Y-68972131D01*
X58652464Y-69010227D01*
X58576274Y-69048322D01*
X58385798Y-69048322D01*
X58309607Y-69010227D01*
X58271512Y-68972131D01*
X58233417Y-68895941D01*
X58233417Y-68743560D01*
X58271512Y-68667369D01*
X58309607Y-68629274D01*
X58385798Y-68591179D01*
X58728655Y-86879274D02*
X57928655Y-86879274D01*
X57928655Y-87069750D01*
X57966750Y-87184036D01*
X58042940Y-87260227D01*
X58119131Y-87298322D01*
X58271512Y-87336417D01*
X58385798Y-87336417D01*
X58538179Y-87298322D01*
X58614369Y-87260227D01*
X58690560Y-87184036D01*
X58728655Y-87069750D01*
X58728655Y-86879274D01*
X57928655Y-87603084D02*
X57928655Y-88136417D01*
X58728655Y-87793560D01*
X58728655Y-105167274D02*
X57928655Y-105167274D01*
X57928655Y-105357750D01*
X57966750Y-105472036D01*
X58042940Y-105548227D01*
X58119131Y-105586322D01*
X58271512Y-105624417D01*
X58385798Y-105624417D01*
X58538179Y-105586322D01*
X58614369Y-105548227D01*
X58690560Y-105472036D01*
X58728655Y-105357750D01*
X58728655Y-105167274D01*
X58271512Y-106081560D02*
X58233417Y-106005369D01*
X58195321Y-105967274D01*
X58119131Y-105929179D01*
X58081036Y-105929179D01*
X58004845Y-105967274D01*
X57966750Y-106005369D01*
X57928655Y-106081560D01*
X57928655Y-106233941D01*
X57966750Y-106310131D01*
X58004845Y-106348227D01*
X58081036Y-106386322D01*
X58119131Y-106386322D01*
X58195321Y-106348227D01*
X58233417Y-106310131D01*
X58271512Y-106233941D01*
X58271512Y-106081560D01*
X58309607Y-106005369D01*
X58347702Y-105967274D01*
X58423893Y-105929179D01*
X58576274Y-105929179D01*
X58652464Y-105967274D01*
X58690560Y-106005369D01*
X58728655Y-106081560D01*
X58728655Y-106233941D01*
X58690560Y-106310131D01*
X58652464Y-106348227D01*
X58576274Y-106386322D01*
X58423893Y-106386322D01*
X58347702Y-106348227D01*
X58309607Y-106310131D01*
X58271512Y-106233941D01*
X93673655Y-44715274D02*
X92873655Y-44715274D01*
X92873655Y-44905750D01*
X92911750Y-45020036D01*
X92987940Y-45096227D01*
X93064131Y-45134322D01*
X93216512Y-45172417D01*
X93330798Y-45172417D01*
X93483179Y-45134322D01*
X93559369Y-45096227D01*
X93635560Y-45020036D01*
X93673655Y-44905750D01*
X93673655Y-44715274D01*
X93673655Y-45553369D02*
X93673655Y-45705750D01*
X93635560Y-45781941D01*
X93597464Y-45820036D01*
X93483179Y-45896227D01*
X93330798Y-45934322D01*
X93026036Y-45934322D01*
X92949845Y-45896227D01*
X92911750Y-45858131D01*
X92873655Y-45781941D01*
X92873655Y-45629560D01*
X92911750Y-45553369D01*
X92949845Y-45515274D01*
X93026036Y-45477179D01*
X93216512Y-45477179D01*
X93292702Y-45515274D01*
X93330798Y-45553369D01*
X93368893Y-45629560D01*
X93368893Y-45781941D01*
X93330798Y-45858131D01*
X93292702Y-45896227D01*
X93216512Y-45934322D01*
X84128655Y-67702321D02*
X83328655Y-67702321D01*
X83328655Y-67892797D01*
X83366750Y-68007083D01*
X83442940Y-68083274D01*
X83519131Y-68121369D01*
X83671512Y-68159464D01*
X83785798Y-68159464D01*
X83938179Y-68121369D01*
X84014369Y-68083274D01*
X84090560Y-68007083D01*
X84128655Y-67892797D01*
X84128655Y-67702321D01*
X84128655Y-68921369D02*
X84128655Y-68464226D01*
X84128655Y-68692797D02*
X83328655Y-68692797D01*
X83442940Y-68616607D01*
X83519131Y-68540416D01*
X83557226Y-68464226D01*
X83328655Y-69416607D02*
X83328655Y-69492798D01*
X83366750Y-69568988D01*
X83404845Y-69607083D01*
X83481036Y-69645179D01*
X83633417Y-69683274D01*
X83823893Y-69683274D01*
X83976274Y-69645179D01*
X84052464Y-69607083D01*
X84090560Y-69568988D01*
X84128655Y-69492798D01*
X84128655Y-69416607D01*
X84090560Y-69340417D01*
X84052464Y-69302321D01*
X83976274Y-69264226D01*
X83823893Y-69226131D01*
X83633417Y-69226131D01*
X83481036Y-69264226D01*
X83404845Y-69302321D01*
X83366750Y-69340417D01*
X83328655Y-69416607D01*
X77778655Y-86498321D02*
X76978655Y-86498321D01*
X76978655Y-86688797D01*
X77016750Y-86803083D01*
X77092940Y-86879274D01*
X77169131Y-86917369D01*
X77321512Y-86955464D01*
X77435798Y-86955464D01*
X77588179Y-86917369D01*
X77664369Y-86879274D01*
X77740560Y-86803083D01*
X77778655Y-86688797D01*
X77778655Y-86498321D01*
X77778655Y-87717369D02*
X77778655Y-87260226D01*
X77778655Y-87488797D02*
X76978655Y-87488797D01*
X77092940Y-87412607D01*
X77169131Y-87336416D01*
X77207226Y-87260226D01*
X77778655Y-88479274D02*
X77778655Y-88022131D01*
X77778655Y-88250702D02*
X76978655Y-88250702D01*
X77092940Y-88174512D01*
X77169131Y-88098321D01*
X77207226Y-88022131D01*
X77778655Y-105040321D02*
X76978655Y-105040321D01*
X76978655Y-105230797D01*
X77016750Y-105345083D01*
X77092940Y-105421274D01*
X77169131Y-105459369D01*
X77321512Y-105497464D01*
X77435798Y-105497464D01*
X77588179Y-105459369D01*
X77664369Y-105421274D01*
X77740560Y-105345083D01*
X77778655Y-105230797D01*
X77778655Y-105040321D01*
X77778655Y-106259369D02*
X77778655Y-105802226D01*
X77778655Y-106030797D02*
X76978655Y-106030797D01*
X77092940Y-105954607D01*
X77169131Y-105878416D01*
X77207226Y-105802226D01*
X77054845Y-106564131D02*
X77016750Y-106602226D01*
X76978655Y-106678417D01*
X76978655Y-106868893D01*
X77016750Y-106945083D01*
X77054845Y-106983179D01*
X77131036Y-107021274D01*
X77207226Y-107021274D01*
X77321512Y-106983179D01*
X77778655Y-106526036D01*
X77778655Y-107021274D01*
X96721655Y-44334321D02*
X95921655Y-44334321D01*
X95921655Y-44524797D01*
X95959750Y-44639083D01*
X96035940Y-44715274D01*
X96112131Y-44753369D01*
X96264512Y-44791464D01*
X96378798Y-44791464D01*
X96531179Y-44753369D01*
X96607369Y-44715274D01*
X96683560Y-44639083D01*
X96721655Y-44524797D01*
X96721655Y-44334321D01*
X96721655Y-45553369D02*
X96721655Y-45096226D01*
X96721655Y-45324797D02*
X95921655Y-45324797D01*
X96035940Y-45248607D01*
X96112131Y-45172416D01*
X96150226Y-45096226D01*
X95921655Y-45820036D02*
X95921655Y-46315274D01*
X96226417Y-46048607D01*
X96226417Y-46162893D01*
X96264512Y-46239083D01*
X96302607Y-46277179D01*
X96378798Y-46315274D01*
X96569274Y-46315274D01*
X96645464Y-46277179D01*
X96683560Y-46239083D01*
X96721655Y-46162893D01*
X96721655Y-45934321D01*
X96683560Y-45858131D01*
X96645464Y-45820036D01*
X96828655Y-67448321D02*
X96028655Y-67448321D01*
X96028655Y-67638797D01*
X96066750Y-67753083D01*
X96142940Y-67829274D01*
X96219131Y-67867369D01*
X96371512Y-67905464D01*
X96485798Y-67905464D01*
X96638179Y-67867369D01*
X96714369Y-67829274D01*
X96790560Y-67753083D01*
X96828655Y-67638797D01*
X96828655Y-67448321D01*
X96828655Y-68667369D02*
X96828655Y-68210226D01*
X96828655Y-68438797D02*
X96028655Y-68438797D01*
X96142940Y-68362607D01*
X96219131Y-68286416D01*
X96257226Y-68210226D01*
X96295321Y-69353083D02*
X96828655Y-69353083D01*
X95990560Y-69162607D02*
X96561988Y-68972131D01*
X96561988Y-69467369D01*
X96828655Y-86498321D02*
X96028655Y-86498321D01*
X96028655Y-86688797D01*
X96066750Y-86803083D01*
X96142940Y-86879274D01*
X96219131Y-86917369D01*
X96371512Y-86955464D01*
X96485798Y-86955464D01*
X96638179Y-86917369D01*
X96714369Y-86879274D01*
X96790560Y-86803083D01*
X96828655Y-86688797D01*
X96828655Y-86498321D01*
X96828655Y-87717369D02*
X96828655Y-87260226D01*
X96828655Y-87488797D02*
X96028655Y-87488797D01*
X96142940Y-87412607D01*
X96219131Y-87336416D01*
X96257226Y-87260226D01*
X96028655Y-88441179D02*
X96028655Y-88060226D01*
X96409607Y-88022131D01*
X96371512Y-88060226D01*
X96333417Y-88136417D01*
X96333417Y-88326893D01*
X96371512Y-88403083D01*
X96409607Y-88441179D01*
X96485798Y-88479274D01*
X96676274Y-88479274D01*
X96752464Y-88441179D01*
X96790560Y-88403083D01*
X96828655Y-88326893D01*
X96828655Y-88136417D01*
X96790560Y-88060226D01*
X96752464Y-88022131D01*
X96828655Y-105040321D02*
X96028655Y-105040321D01*
X96028655Y-105230797D01*
X96066750Y-105345083D01*
X96142940Y-105421274D01*
X96219131Y-105459369D01*
X96371512Y-105497464D01*
X96485798Y-105497464D01*
X96638179Y-105459369D01*
X96714369Y-105421274D01*
X96790560Y-105345083D01*
X96828655Y-105230797D01*
X96828655Y-105040321D01*
X96828655Y-106259369D02*
X96828655Y-105802226D01*
X96828655Y-106030797D02*
X96028655Y-106030797D01*
X96142940Y-105954607D01*
X96219131Y-105878416D01*
X96257226Y-105802226D01*
X96028655Y-106945083D02*
X96028655Y-106792702D01*
X96066750Y-106716512D01*
X96104845Y-106678417D01*
X96219131Y-106602226D01*
X96371512Y-106564131D01*
X96676274Y-106564131D01*
X96752464Y-106602226D01*
X96790560Y-106640321D01*
X96828655Y-106716512D01*
X96828655Y-106868893D01*
X96790560Y-106945083D01*
X96752464Y-106983179D01*
X96676274Y-107021274D01*
X96485798Y-107021274D01*
X96409607Y-106983179D01*
X96371512Y-106945083D01*
X96333417Y-106868893D01*
X96333417Y-106716512D01*
X96371512Y-106640321D01*
X96409607Y-106602226D01*
X96485798Y-106564131D01*
X96018416Y-52242893D02*
X96066035Y-52290512D01*
X96208892Y-52338131D01*
X96304130Y-52338131D01*
X96446988Y-52290512D01*
X96542226Y-52195274D01*
X96589845Y-52100036D01*
X96637464Y-51909560D01*
X96637464Y-51766702D01*
X96589845Y-51576226D01*
X96542226Y-51480988D01*
X96446988Y-51385750D01*
X96304130Y-51338131D01*
X96208892Y-51338131D01*
X96066035Y-51385750D01*
X96018416Y-51433369D01*
X95066035Y-52338131D02*
X95637464Y-52338131D01*
X95351750Y-52338131D02*
X95351750Y-51338131D01*
X95446988Y-51480988D01*
X95542226Y-51576226D01*
X95637464Y-51623845D01*
X96018416Y-57322893D02*
X96066035Y-57370512D01*
X96208892Y-57418131D01*
X96304130Y-57418131D01*
X96446988Y-57370512D01*
X96542226Y-57275274D01*
X96589845Y-57180036D01*
X96637464Y-56989560D01*
X96637464Y-56846702D01*
X96589845Y-56656226D01*
X96542226Y-56560988D01*
X96446988Y-56465750D01*
X96304130Y-56418131D01*
X96208892Y-56418131D01*
X96066035Y-56465750D01*
X96018416Y-56513369D01*
X95637464Y-56513369D02*
X95589845Y-56465750D01*
X95494607Y-56418131D01*
X95256511Y-56418131D01*
X95161273Y-56465750D01*
X95113654Y-56513369D01*
X95066035Y-56608607D01*
X95066035Y-56703845D01*
X95113654Y-56846702D01*
X95685083Y-57418131D01*
X95066035Y-57418131D01*
X69950893Y-53027084D02*
X69998512Y-52979465D01*
X70046131Y-52836608D01*
X70046131Y-52741370D01*
X69998512Y-52598512D01*
X69903274Y-52503274D01*
X69808036Y-52455655D01*
X69617560Y-52408036D01*
X69474702Y-52408036D01*
X69284226Y-52455655D01*
X69188988Y-52503274D01*
X69093750Y-52598512D01*
X69046131Y-52741370D01*
X69046131Y-52836608D01*
X69093750Y-52979465D01*
X69141369Y-53027084D01*
X69046131Y-53360417D02*
X69046131Y-53979465D01*
X69427083Y-53646131D01*
X69427083Y-53788989D01*
X69474702Y-53884227D01*
X69522321Y-53931846D01*
X69617560Y-53979465D01*
X69855655Y-53979465D01*
X69950893Y-53931846D01*
X69998512Y-53884227D01*
X70046131Y-53788989D01*
X70046131Y-53503274D01*
X69998512Y-53408036D01*
X69950893Y-53360417D01*
X83064416Y-52496893D02*
X83112035Y-52544512D01*
X83254892Y-52592131D01*
X83350130Y-52592131D01*
X83492988Y-52544512D01*
X83588226Y-52449274D01*
X83635845Y-52354036D01*
X83683464Y-52163560D01*
X83683464Y-52020702D01*
X83635845Y-51830226D01*
X83588226Y-51734988D01*
X83492988Y-51639750D01*
X83350130Y-51592131D01*
X83254892Y-51592131D01*
X83112035Y-51639750D01*
X83064416Y-51687369D01*
X82207273Y-51925464D02*
X82207273Y-52592131D01*
X82445369Y-51544512D02*
X82683464Y-52258798D01*
X82064416Y-52258798D01*
X68050893Y-53127084D02*
X68098512Y-53079465D01*
X68146131Y-52936608D01*
X68146131Y-52841370D01*
X68098512Y-52698512D01*
X68003274Y-52603274D01*
X67908036Y-52555655D01*
X67717560Y-52508036D01*
X67574702Y-52508036D01*
X67384226Y-52555655D01*
X67288988Y-52603274D01*
X67193750Y-52698512D01*
X67146131Y-52841370D01*
X67146131Y-52936608D01*
X67193750Y-53079465D01*
X67241369Y-53127084D01*
X67146131Y-54031846D02*
X67146131Y-53555655D01*
X67622321Y-53508036D01*
X67574702Y-53555655D01*
X67527083Y-53650893D01*
X67527083Y-53888989D01*
X67574702Y-53984227D01*
X67622321Y-54031846D01*
X67717560Y-54079465D01*
X67955655Y-54079465D01*
X68050893Y-54031846D01*
X68098512Y-53984227D01*
X68146131Y-53888989D01*
X68146131Y-53650893D01*
X68098512Y-53555655D01*
X68050893Y-53508036D01*
X66650893Y-47727084D02*
X66698512Y-47679465D01*
X66746131Y-47536608D01*
X66746131Y-47441370D01*
X66698512Y-47298512D01*
X66603274Y-47203274D01*
X66508036Y-47155655D01*
X66317560Y-47108036D01*
X66174702Y-47108036D01*
X65984226Y-47155655D01*
X65888988Y-47203274D01*
X65793750Y-47298512D01*
X65746131Y-47441370D01*
X65746131Y-47536608D01*
X65793750Y-47679465D01*
X65841369Y-47727084D01*
X65746131Y-48584227D02*
X65746131Y-48393750D01*
X65793750Y-48298512D01*
X65841369Y-48250893D01*
X65984226Y-48155655D01*
X66174702Y-48108036D01*
X66555655Y-48108036D01*
X66650893Y-48155655D01*
X66698512Y-48203274D01*
X66746131Y-48298512D01*
X66746131Y-48488989D01*
X66698512Y-48584227D01*
X66650893Y-48631846D01*
X66555655Y-48679465D01*
X66317560Y-48679465D01*
X66222321Y-48631846D01*
X66174702Y-48584227D01*
X66127083Y-48488989D01*
X66127083Y-48298512D01*
X66174702Y-48203274D01*
X66222321Y-48155655D01*
X66317560Y-48108036D01*
X87548893Y-49965084D02*
X87596512Y-49917465D01*
X87644131Y-49774608D01*
X87644131Y-49679370D01*
X87596512Y-49536512D01*
X87501274Y-49441274D01*
X87406036Y-49393655D01*
X87215560Y-49346036D01*
X87072702Y-49346036D01*
X86882226Y-49393655D01*
X86786988Y-49441274D01*
X86691750Y-49536512D01*
X86644131Y-49679370D01*
X86644131Y-49774608D01*
X86691750Y-49917465D01*
X86739369Y-49965084D01*
X86644131Y-50298417D02*
X86644131Y-50965084D01*
X87644131Y-50536512D01*
X55036893Y-37773084D02*
X55084512Y-37725465D01*
X55132131Y-37582608D01*
X55132131Y-37487370D01*
X55084512Y-37344512D01*
X54989274Y-37249274D01*
X54894036Y-37201655D01*
X54703560Y-37154036D01*
X54560702Y-37154036D01*
X54370226Y-37201655D01*
X54274988Y-37249274D01*
X54179750Y-37344512D01*
X54132131Y-37487370D01*
X54132131Y-37582608D01*
X54179750Y-37725465D01*
X54227369Y-37773084D01*
X54560702Y-38344512D02*
X54513083Y-38249274D01*
X54465464Y-38201655D01*
X54370226Y-38154036D01*
X54322607Y-38154036D01*
X54227369Y-38201655D01*
X54179750Y-38249274D01*
X54132131Y-38344512D01*
X54132131Y-38534989D01*
X54179750Y-38630227D01*
X54227369Y-38677846D01*
X54322607Y-38725465D01*
X54370226Y-38725465D01*
X54465464Y-38677846D01*
X54513083Y-38630227D01*
X54560702Y-38534989D01*
X54560702Y-38344512D01*
X54608321Y-38249274D01*
X54655940Y-38201655D01*
X54751179Y-38154036D01*
X54941655Y-38154036D01*
X55036893Y-38201655D01*
X55084512Y-38249274D01*
X55132131Y-38344512D01*
X55132131Y-38534989D01*
X55084512Y-38630227D01*
X55036893Y-38677846D01*
X54941655Y-38725465D01*
X54751179Y-38725465D01*
X54655940Y-38677846D01*
X54608321Y-38630227D01*
X54560702Y-38534989D01*
X92462416Y-35248893D02*
X92510035Y-35296512D01*
X92652892Y-35344131D01*
X92748130Y-35344131D01*
X92890988Y-35296512D01*
X92986226Y-35201274D01*
X93033845Y-35106036D01*
X93081464Y-34915560D01*
X93081464Y-34772702D01*
X93033845Y-34582226D01*
X92986226Y-34486988D01*
X92890988Y-34391750D01*
X92748130Y-34344131D01*
X92652892Y-34344131D01*
X92510035Y-34391750D01*
X92462416Y-34439369D01*
X91986226Y-35344131D02*
X91795750Y-35344131D01*
X91700511Y-35296512D01*
X91652892Y-35248893D01*
X91557654Y-35106036D01*
X91510035Y-34915560D01*
X91510035Y-34534607D01*
X91557654Y-34439369D01*
X91605273Y-34391750D01*
X91700511Y-34344131D01*
X91890988Y-34344131D01*
X91986226Y-34391750D01*
X92033845Y-34439369D01*
X92081464Y-34534607D01*
X92081464Y-34772702D01*
X92033845Y-34867940D01*
X91986226Y-34915560D01*
X91890988Y-34963179D01*
X91700511Y-34963179D01*
X91605273Y-34915560D01*
X91557654Y-34867940D01*
X91510035Y-34772702D01*
X93136893Y-37296893D02*
X93184512Y-37249274D01*
X93232131Y-37106417D01*
X93232131Y-37011179D01*
X93184512Y-36868321D01*
X93089274Y-36773083D01*
X92994036Y-36725464D01*
X92803560Y-36677845D01*
X92660702Y-36677845D01*
X92470226Y-36725464D01*
X92374988Y-36773083D01*
X92279750Y-36868321D01*
X92232131Y-37011179D01*
X92232131Y-37106417D01*
X92279750Y-37249274D01*
X92327369Y-37296893D01*
X93232131Y-38249274D02*
X93232131Y-37677845D01*
X93232131Y-37963559D02*
X92232131Y-37963559D01*
X92374988Y-37868321D01*
X92470226Y-37773083D01*
X92517845Y-37677845D01*
X92232131Y-38868321D02*
X92232131Y-38963560D01*
X92279750Y-39058798D01*
X92327369Y-39106417D01*
X92422607Y-39154036D01*
X92613083Y-39201655D01*
X92851179Y-39201655D01*
X93041655Y-39154036D01*
X93136893Y-39106417D01*
X93184512Y-39058798D01*
X93232131Y-38963560D01*
X93232131Y-38868321D01*
X93184512Y-38773083D01*
X93136893Y-38725464D01*
X93041655Y-38677845D01*
X92851179Y-38630226D01*
X92613083Y-38630226D01*
X92422607Y-38677845D01*
X92327369Y-38725464D01*
X92279750Y-38773083D01*
X92232131Y-38868321D01*
X112186893Y-37296893D02*
X112234512Y-37249274D01*
X112282131Y-37106417D01*
X112282131Y-37011179D01*
X112234512Y-36868321D01*
X112139274Y-36773083D01*
X112044036Y-36725464D01*
X111853560Y-36677845D01*
X111710702Y-36677845D01*
X111520226Y-36725464D01*
X111424988Y-36773083D01*
X111329750Y-36868321D01*
X111282131Y-37011179D01*
X111282131Y-37106417D01*
X111329750Y-37249274D01*
X111377369Y-37296893D01*
X112282131Y-38249274D02*
X112282131Y-37677845D01*
X112282131Y-37963559D02*
X111282131Y-37963559D01*
X111424988Y-37868321D01*
X111520226Y-37773083D01*
X111567845Y-37677845D01*
X112282131Y-39201655D02*
X112282131Y-38630226D01*
X112282131Y-38915940D02*
X111282131Y-38915940D01*
X111424988Y-38820702D01*
X111520226Y-38725464D01*
X111567845Y-38630226D01*
X55036893Y-56346893D02*
X55084512Y-56299274D01*
X55132131Y-56156417D01*
X55132131Y-56061179D01*
X55084512Y-55918321D01*
X54989274Y-55823083D01*
X54894036Y-55775464D01*
X54703560Y-55727845D01*
X54560702Y-55727845D01*
X54370226Y-55775464D01*
X54274988Y-55823083D01*
X54179750Y-55918321D01*
X54132131Y-56061179D01*
X54132131Y-56156417D01*
X54179750Y-56299274D01*
X54227369Y-56346893D01*
X55132131Y-57299274D02*
X55132131Y-56727845D01*
X55132131Y-57013559D02*
X54132131Y-57013559D01*
X54274988Y-56918321D01*
X54370226Y-56823083D01*
X54417845Y-56727845D01*
X54227369Y-57680226D02*
X54179750Y-57727845D01*
X54132131Y-57823083D01*
X54132131Y-58061179D01*
X54179750Y-58156417D01*
X54227369Y-58204036D01*
X54322607Y-58251655D01*
X54417845Y-58251655D01*
X54560702Y-58204036D01*
X55132131Y-57632607D01*
X55132131Y-58251655D01*
X57550893Y-56250893D02*
X57598512Y-56203274D01*
X57646131Y-56060417D01*
X57646131Y-55965179D01*
X57598512Y-55822321D01*
X57503274Y-55727083D01*
X57408036Y-55679464D01*
X57217560Y-55631845D01*
X57074702Y-55631845D01*
X56884226Y-55679464D01*
X56788988Y-55727083D01*
X56693750Y-55822321D01*
X56646131Y-55965179D01*
X56646131Y-56060417D01*
X56693750Y-56203274D01*
X56741369Y-56250893D01*
X57646131Y-57203274D02*
X57646131Y-56631845D01*
X57646131Y-56917559D02*
X56646131Y-56917559D01*
X56788988Y-56822321D01*
X56884226Y-56727083D01*
X56931845Y-56631845D01*
X56646131Y-57536607D02*
X56646131Y-58155655D01*
X57027083Y-57822321D01*
X57027083Y-57965179D01*
X57074702Y-58060417D01*
X57122321Y-58108036D01*
X57217560Y-58155655D01*
X57455655Y-58155655D01*
X57550893Y-58108036D01*
X57598512Y-58060417D01*
X57646131Y-57965179D01*
X57646131Y-57679464D01*
X57598512Y-57584226D01*
X57550893Y-57536607D01*
X92036607Y-59650893D02*
X92084226Y-59698512D01*
X92227083Y-59746131D01*
X92322321Y-59746131D01*
X92465179Y-59698512D01*
X92560417Y-59603274D01*
X92608036Y-59508036D01*
X92655655Y-59317560D01*
X92655655Y-59174702D01*
X92608036Y-58984226D01*
X92560417Y-58888988D01*
X92465179Y-58793750D01*
X92322321Y-58746131D01*
X92227083Y-58746131D01*
X92084226Y-58793750D01*
X92036607Y-58841369D01*
X91084226Y-59746131D02*
X91655655Y-59746131D01*
X91369941Y-59746131D02*
X91369941Y-58746131D01*
X91465179Y-58888988D01*
X91560417Y-58984226D01*
X91655655Y-59031845D01*
X90227083Y-59079464D02*
X90227083Y-59746131D01*
X90465179Y-58698512D02*
X90703274Y-59412798D01*
X90084226Y-59412798D01*
X111950893Y-56450893D02*
X111998512Y-56403274D01*
X112046131Y-56260417D01*
X112046131Y-56165179D01*
X111998512Y-56022321D01*
X111903274Y-55927083D01*
X111808036Y-55879464D01*
X111617560Y-55831845D01*
X111474702Y-55831845D01*
X111284226Y-55879464D01*
X111188988Y-55927083D01*
X111093750Y-56022321D01*
X111046131Y-56165179D01*
X111046131Y-56260417D01*
X111093750Y-56403274D01*
X111141369Y-56450893D01*
X112046131Y-57403274D02*
X112046131Y-56831845D01*
X112046131Y-57117559D02*
X111046131Y-57117559D01*
X111188988Y-57022321D01*
X111284226Y-56927083D01*
X111331845Y-56831845D01*
X111046131Y-58308036D02*
X111046131Y-57831845D01*
X111522321Y-57784226D01*
X111474702Y-57831845D01*
X111427083Y-57927083D01*
X111427083Y-58165179D01*
X111474702Y-58260417D01*
X111522321Y-58308036D01*
X111617560Y-58355655D01*
X111855655Y-58355655D01*
X111950893Y-58308036D01*
X111998512Y-58260417D01*
X112046131Y-58165179D01*
X112046131Y-57927083D01*
X111998512Y-57831845D01*
X111950893Y-57784226D01*
X55036893Y-75396893D02*
X55084512Y-75349274D01*
X55132131Y-75206417D01*
X55132131Y-75111179D01*
X55084512Y-74968321D01*
X54989274Y-74873083D01*
X54894036Y-74825464D01*
X54703560Y-74777845D01*
X54560702Y-74777845D01*
X54370226Y-74825464D01*
X54274988Y-74873083D01*
X54179750Y-74968321D01*
X54132131Y-75111179D01*
X54132131Y-75206417D01*
X54179750Y-75349274D01*
X54227369Y-75396893D01*
X55132131Y-76349274D02*
X55132131Y-75777845D01*
X55132131Y-76063559D02*
X54132131Y-76063559D01*
X54274988Y-75968321D01*
X54370226Y-75873083D01*
X54417845Y-75777845D01*
X54132131Y-77206417D02*
X54132131Y-77015940D01*
X54179750Y-76920702D01*
X54227369Y-76873083D01*
X54370226Y-76777845D01*
X54560702Y-76730226D01*
X54941655Y-76730226D01*
X55036893Y-76777845D01*
X55084512Y-76825464D01*
X55132131Y-76920702D01*
X55132131Y-77111179D01*
X55084512Y-77206417D01*
X55036893Y-77254036D01*
X54941655Y-77301655D01*
X54703560Y-77301655D01*
X54608321Y-77254036D01*
X54560702Y-77206417D01*
X54513083Y-77111179D01*
X54513083Y-76920702D01*
X54560702Y-76825464D01*
X54608321Y-76777845D01*
X54703560Y-76730226D01*
X75356893Y-80222893D02*
X75404512Y-80175274D01*
X75452131Y-80032417D01*
X75452131Y-79937179D01*
X75404512Y-79794321D01*
X75309274Y-79699083D01*
X75214036Y-79651464D01*
X75023560Y-79603845D01*
X74880702Y-79603845D01*
X74690226Y-79651464D01*
X74594988Y-79699083D01*
X74499750Y-79794321D01*
X74452131Y-79937179D01*
X74452131Y-80032417D01*
X74499750Y-80175274D01*
X74547369Y-80222893D01*
X75452131Y-81175274D02*
X75452131Y-80603845D01*
X75452131Y-80889559D02*
X74452131Y-80889559D01*
X74594988Y-80794321D01*
X74690226Y-80699083D01*
X74737845Y-80603845D01*
X74452131Y-81508607D02*
X74452131Y-82175274D01*
X75452131Y-81746702D01*
X92950893Y-75450893D02*
X92998512Y-75403274D01*
X93046131Y-75260417D01*
X93046131Y-75165179D01*
X92998512Y-75022321D01*
X92903274Y-74927083D01*
X92808036Y-74879464D01*
X92617560Y-74831845D01*
X92474702Y-74831845D01*
X92284226Y-74879464D01*
X92188988Y-74927083D01*
X92093750Y-75022321D01*
X92046131Y-75165179D01*
X92046131Y-75260417D01*
X92093750Y-75403274D01*
X92141369Y-75450893D01*
X93046131Y-76403274D02*
X93046131Y-75831845D01*
X93046131Y-76117559D02*
X92046131Y-76117559D01*
X92188988Y-76022321D01*
X92284226Y-75927083D01*
X92331845Y-75831845D01*
X92474702Y-76974702D02*
X92427083Y-76879464D01*
X92379464Y-76831845D01*
X92284226Y-76784226D01*
X92236607Y-76784226D01*
X92141369Y-76831845D01*
X92093750Y-76879464D01*
X92046131Y-76974702D01*
X92046131Y-77165179D01*
X92093750Y-77260417D01*
X92141369Y-77308036D01*
X92236607Y-77355655D01*
X92284226Y-77355655D01*
X92379464Y-77308036D01*
X92427083Y-77260417D01*
X92474702Y-77165179D01*
X92474702Y-76974702D01*
X92522321Y-76879464D01*
X92569940Y-76831845D01*
X92665179Y-76784226D01*
X92855655Y-76784226D01*
X92950893Y-76831845D01*
X92998512Y-76879464D01*
X93046131Y-76974702D01*
X93046131Y-77165179D01*
X92998512Y-77260417D01*
X92950893Y-77308036D01*
X92855655Y-77355655D01*
X92665179Y-77355655D01*
X92569940Y-77308036D01*
X92522321Y-77260417D01*
X92474702Y-77165179D01*
X111950893Y-75450893D02*
X111998512Y-75403274D01*
X112046131Y-75260417D01*
X112046131Y-75165179D01*
X111998512Y-75022321D01*
X111903274Y-74927083D01*
X111808036Y-74879464D01*
X111617560Y-74831845D01*
X111474702Y-74831845D01*
X111284226Y-74879464D01*
X111188988Y-74927083D01*
X111093750Y-75022321D01*
X111046131Y-75165179D01*
X111046131Y-75260417D01*
X111093750Y-75403274D01*
X111141369Y-75450893D01*
X112046131Y-76403274D02*
X112046131Y-75831845D01*
X112046131Y-76117559D02*
X111046131Y-76117559D01*
X111188988Y-76022321D01*
X111284226Y-75927083D01*
X111331845Y-75831845D01*
X112046131Y-76879464D02*
X112046131Y-77069940D01*
X111998512Y-77165179D01*
X111950893Y-77212798D01*
X111808036Y-77308036D01*
X111617560Y-77355655D01*
X111236607Y-77355655D01*
X111141369Y-77308036D01*
X111093750Y-77260417D01*
X111046131Y-77165179D01*
X111046131Y-76974702D01*
X111093750Y-76879464D01*
X111141369Y-76831845D01*
X111236607Y-76784226D01*
X111474702Y-76784226D01*
X111569940Y-76831845D01*
X111617560Y-76879464D01*
X111665179Y-76974702D01*
X111665179Y-77165179D01*
X111617560Y-77260417D01*
X111569940Y-77308036D01*
X111474702Y-77355655D01*
X55250893Y-94450893D02*
X55298512Y-94403274D01*
X55346131Y-94260417D01*
X55346131Y-94165179D01*
X55298512Y-94022321D01*
X55203274Y-93927083D01*
X55108036Y-93879464D01*
X54917560Y-93831845D01*
X54774702Y-93831845D01*
X54584226Y-93879464D01*
X54488988Y-93927083D01*
X54393750Y-94022321D01*
X54346131Y-94165179D01*
X54346131Y-94260417D01*
X54393750Y-94403274D01*
X54441369Y-94450893D01*
X54441369Y-94831845D02*
X54393750Y-94879464D01*
X54346131Y-94974702D01*
X54346131Y-95212798D01*
X54393750Y-95308036D01*
X54441369Y-95355655D01*
X54536607Y-95403274D01*
X54631845Y-95403274D01*
X54774702Y-95355655D01*
X55346131Y-94784226D01*
X55346131Y-95403274D01*
X54346131Y-96022321D02*
X54346131Y-96117560D01*
X54393750Y-96212798D01*
X54441369Y-96260417D01*
X54536607Y-96308036D01*
X54727083Y-96355655D01*
X54965179Y-96355655D01*
X55155655Y-96308036D01*
X55250893Y-96260417D01*
X55298512Y-96212798D01*
X55346131Y-96117560D01*
X55346131Y-96022321D01*
X55298512Y-95927083D01*
X55250893Y-95879464D01*
X55155655Y-95831845D01*
X54965179Y-95784226D01*
X54727083Y-95784226D01*
X54536607Y-95831845D01*
X54441369Y-95879464D01*
X54393750Y-95927083D01*
X54346131Y-96022321D01*
X74350893Y-94550893D02*
X74398512Y-94503274D01*
X74446131Y-94360417D01*
X74446131Y-94265179D01*
X74398512Y-94122321D01*
X74303274Y-94027083D01*
X74208036Y-93979464D01*
X74017560Y-93931845D01*
X73874702Y-93931845D01*
X73684226Y-93979464D01*
X73588988Y-94027083D01*
X73493750Y-94122321D01*
X73446131Y-94265179D01*
X73446131Y-94360417D01*
X73493750Y-94503274D01*
X73541369Y-94550893D01*
X73541369Y-94931845D02*
X73493750Y-94979464D01*
X73446131Y-95074702D01*
X73446131Y-95312798D01*
X73493750Y-95408036D01*
X73541369Y-95455655D01*
X73636607Y-95503274D01*
X73731845Y-95503274D01*
X73874702Y-95455655D01*
X74446131Y-94884226D01*
X74446131Y-95503274D01*
X74446131Y-96455655D02*
X74446131Y-95884226D01*
X74446131Y-96169940D02*
X73446131Y-96169940D01*
X73588988Y-96074702D01*
X73684226Y-95979464D01*
X73731845Y-95884226D01*
X93150893Y-94350893D02*
X93198512Y-94303274D01*
X93246131Y-94160417D01*
X93246131Y-94065179D01*
X93198512Y-93922321D01*
X93103274Y-93827083D01*
X93008036Y-93779464D01*
X92817560Y-93731845D01*
X92674702Y-93731845D01*
X92484226Y-93779464D01*
X92388988Y-93827083D01*
X92293750Y-93922321D01*
X92246131Y-94065179D01*
X92246131Y-94160417D01*
X92293750Y-94303274D01*
X92341369Y-94350893D01*
X92341369Y-94731845D02*
X92293750Y-94779464D01*
X92246131Y-94874702D01*
X92246131Y-95112798D01*
X92293750Y-95208036D01*
X92341369Y-95255655D01*
X92436607Y-95303274D01*
X92531845Y-95303274D01*
X92674702Y-95255655D01*
X93246131Y-94684226D01*
X93246131Y-95303274D01*
X92341369Y-95684226D02*
X92293750Y-95731845D01*
X92246131Y-95827083D01*
X92246131Y-96065179D01*
X92293750Y-96160417D01*
X92341369Y-96208036D01*
X92436607Y-96255655D01*
X92531845Y-96255655D01*
X92674702Y-96208036D01*
X93246131Y-95636607D01*
X93246131Y-96255655D01*
X112550893Y-94350893D02*
X112598512Y-94303274D01*
X112646131Y-94160417D01*
X112646131Y-94065179D01*
X112598512Y-93922321D01*
X112503274Y-93827083D01*
X112408036Y-93779464D01*
X112217560Y-93731845D01*
X112074702Y-93731845D01*
X111884226Y-93779464D01*
X111788988Y-93827083D01*
X111693750Y-93922321D01*
X111646131Y-94065179D01*
X111646131Y-94160417D01*
X111693750Y-94303274D01*
X111741369Y-94350893D01*
X111741369Y-94731845D02*
X111693750Y-94779464D01*
X111646131Y-94874702D01*
X111646131Y-95112798D01*
X111693750Y-95208036D01*
X111741369Y-95255655D01*
X111836607Y-95303274D01*
X111931845Y-95303274D01*
X112074702Y-95255655D01*
X112646131Y-94684226D01*
X112646131Y-95303274D01*
X111646131Y-95636607D02*
X111646131Y-96255655D01*
X112027083Y-95922321D01*
X112027083Y-96065179D01*
X112074702Y-96160417D01*
X112122321Y-96208036D01*
X112217560Y-96255655D01*
X112455655Y-96255655D01*
X112550893Y-96208036D01*
X112598512Y-96160417D01*
X112646131Y-96065179D01*
X112646131Y-95779464D01*
X112598512Y-95684226D01*
X112550893Y-95636607D01*
X78336607Y-42050893D02*
X78384226Y-42098512D01*
X78527083Y-42146131D01*
X78622321Y-42146131D01*
X78765179Y-42098512D01*
X78860417Y-42003274D01*
X78908036Y-41908036D01*
X78955655Y-41717560D01*
X78955655Y-41574702D01*
X78908036Y-41384226D01*
X78860417Y-41288988D01*
X78765179Y-41193750D01*
X78622321Y-41146131D01*
X78527083Y-41146131D01*
X78384226Y-41193750D01*
X78336607Y-41241369D01*
X77955655Y-41241369D02*
X77908036Y-41193750D01*
X77812798Y-41146131D01*
X77574702Y-41146131D01*
X77479464Y-41193750D01*
X77431845Y-41241369D01*
X77384226Y-41336607D01*
X77384226Y-41431845D01*
X77431845Y-41574702D01*
X78003274Y-42146131D01*
X77384226Y-42146131D01*
X76527083Y-41479464D02*
X76527083Y-42146131D01*
X76765179Y-41098512D02*
X77003274Y-41812798D01*
X76384226Y-41812798D01*
D15*
X47591750Y-34139179D02*
X46575750Y-34139179D01*
X47228893Y-35663179D01*
X46793464Y-53697179D02*
X46793464Y-54713179D01*
X47156321Y-53116607D02*
X47519178Y-54205179D01*
X46575750Y-54205179D01*
X46648321Y-73763179D02*
X47519178Y-73763179D01*
X47083750Y-73763179D02*
X47083750Y-72239179D01*
X47228893Y-72456893D01*
X47374035Y-72602036D01*
X47519178Y-72674607D01*
X47156321Y-91289179D02*
X47011178Y-91289179D01*
X46866035Y-91361750D01*
X46793464Y-91434321D01*
X46720893Y-91579464D01*
X46648321Y-91869750D01*
X46648321Y-92232607D01*
X46720893Y-92522893D01*
X46793464Y-92668036D01*
X46866035Y-92740607D01*
X47011178Y-92813179D01*
X47156321Y-92813179D01*
X47301464Y-92740607D01*
X47374035Y-92668036D01*
X47446607Y-92522893D01*
X47519178Y-92232607D01*
X47519178Y-91869750D01*
X47446607Y-91579464D01*
X47374035Y-91434321D01*
X47301464Y-91361750D01*
X47156321Y-91289179D01*
X66278893Y-34792321D02*
X66424035Y-34719750D01*
X66496607Y-34647179D01*
X66569178Y-34502036D01*
X66569178Y-34429464D01*
X66496607Y-34284321D01*
X66424035Y-34211750D01*
X66278893Y-34139179D01*
X65988607Y-34139179D01*
X65843464Y-34211750D01*
X65770893Y-34284321D01*
X65698321Y-34429464D01*
X65698321Y-34502036D01*
X65770893Y-34647179D01*
X65843464Y-34719750D01*
X65988607Y-34792321D01*
X66278893Y-34792321D01*
X66424035Y-34864893D01*
X66496607Y-34937464D01*
X66569178Y-35082607D01*
X66569178Y-35372893D01*
X66496607Y-35518036D01*
X66424035Y-35590607D01*
X66278893Y-35663179D01*
X65988607Y-35663179D01*
X65843464Y-35590607D01*
X65770893Y-35518036D01*
X65698321Y-35372893D01*
X65698321Y-35082607D01*
X65770893Y-34937464D01*
X65843464Y-34864893D01*
X65988607Y-34792321D01*
X65770893Y-53189179D02*
X66496607Y-53189179D01*
X66569178Y-53914893D01*
X66496607Y-53842321D01*
X66351464Y-53769750D01*
X65988607Y-53769750D01*
X65843464Y-53842321D01*
X65770893Y-53914893D01*
X65698321Y-54060036D01*
X65698321Y-54422893D01*
X65770893Y-54568036D01*
X65843464Y-54640607D01*
X65988607Y-54713179D01*
X66351464Y-54713179D01*
X66496607Y-54640607D01*
X66569178Y-54568036D01*
X66569178Y-72384321D02*
X66496607Y-72311750D01*
X66351464Y-72239179D01*
X65988607Y-72239179D01*
X65843464Y-72311750D01*
X65770893Y-72384321D01*
X65698321Y-72529464D01*
X65698321Y-72674607D01*
X65770893Y-72892321D01*
X66641750Y-73763179D01*
X65698321Y-73763179D01*
X67911750Y-92813179D02*
X67911750Y-91289179D01*
X67548893Y-91289179D01*
X67331178Y-91361750D01*
X67186036Y-91506893D01*
X67113464Y-91652036D01*
X67040893Y-91942321D01*
X67040893Y-92160036D01*
X67113464Y-92450321D01*
X67186036Y-92595464D01*
X67331178Y-92740607D01*
X67548893Y-92813179D01*
X67911750Y-92813179D01*
X66097464Y-91289179D02*
X65807178Y-91289179D01*
X65662036Y-91361750D01*
X65516893Y-91506893D01*
X65444321Y-91797179D01*
X65444321Y-92305179D01*
X65516893Y-92595464D01*
X65662036Y-92740607D01*
X65807178Y-92813179D01*
X66097464Y-92813179D01*
X66242607Y-92740607D01*
X66387750Y-92595464D01*
X66460321Y-92305179D01*
X66460321Y-91797179D01*
X66387750Y-91506893D01*
X66242607Y-91361750D01*
X66097464Y-91289179D01*
X65008893Y-91289179D02*
X64138036Y-91289179D01*
X64573465Y-92813179D02*
X64573465Y-91289179D01*
X85474035Y-35663179D02*
X85183750Y-35663179D01*
X85038607Y-35590607D01*
X84966035Y-35518036D01*
X84820893Y-35300321D01*
X84748321Y-35010036D01*
X84748321Y-34429464D01*
X84820893Y-34284321D01*
X84893464Y-34211750D01*
X85038607Y-34139179D01*
X85328893Y-34139179D01*
X85474035Y-34211750D01*
X85546607Y-34284321D01*
X85619178Y-34429464D01*
X85619178Y-34792321D01*
X85546607Y-34937464D01*
X85474035Y-35010036D01*
X85328893Y-35082607D01*
X85038607Y-35082607D01*
X84893464Y-35010036D01*
X84820893Y-34937464D01*
X84748321Y-34792321D01*
X86803464Y-53659179D02*
X87093750Y-53659179D01*
X87238893Y-53731750D01*
X87311464Y-53804321D01*
X87456607Y-54022036D01*
X87529178Y-54312321D01*
X87529178Y-54892893D01*
X87456607Y-55038036D01*
X87384035Y-55110607D01*
X87238893Y-55183179D01*
X86948607Y-55183179D01*
X86803464Y-55110607D01*
X86730893Y-55038036D01*
X86658321Y-54892893D01*
X86658321Y-54530036D01*
X86730893Y-54384893D01*
X86803464Y-54312321D01*
X86948607Y-54239750D01*
X87238893Y-54239750D01*
X87384035Y-54312321D01*
X87456607Y-54384893D01*
X87529178Y-54530036D01*
X85691750Y-72239179D02*
X84748321Y-72239179D01*
X85256321Y-72819750D01*
X85038607Y-72819750D01*
X84893464Y-72892321D01*
X84820893Y-72964893D01*
X84748321Y-73110036D01*
X84748321Y-73472893D01*
X84820893Y-73618036D01*
X84893464Y-73690607D01*
X85038607Y-73763179D01*
X85474035Y-73763179D01*
X85619178Y-73690607D01*
X85691750Y-73618036D01*
X88376892Y-92014893D02*
X87868892Y-92014893D01*
X87651178Y-92813179D02*
X88376892Y-92813179D01*
X88376892Y-91289179D01*
X87651178Y-91289179D01*
X85982035Y-92958321D02*
X86127178Y-92885750D01*
X86272321Y-92740607D01*
X86490035Y-92522893D01*
X86635178Y-92450321D01*
X86780321Y-92450321D01*
X86707749Y-92813179D02*
X86852892Y-92740607D01*
X86998035Y-92595464D01*
X87070606Y-92305179D01*
X87070606Y-91797179D01*
X86998035Y-91506893D01*
X86852892Y-91361750D01*
X86707749Y-91289179D01*
X86417463Y-91289179D01*
X86272321Y-91361750D01*
X86127178Y-91506893D01*
X86054606Y-91797179D01*
X86054606Y-92305179D01*
X86127178Y-92595464D01*
X86272321Y-92740607D01*
X86417463Y-92813179D01*
X86707749Y-92813179D01*
X85401464Y-91289179D02*
X85401464Y-92522893D01*
X85328892Y-92668036D01*
X85256321Y-92740607D01*
X85111178Y-92813179D01*
X84820892Y-92813179D01*
X84675750Y-92740607D01*
X84603178Y-92668036D01*
X84530607Y-92522893D01*
X84530607Y-91289179D01*
X83877464Y-92377750D02*
X83151750Y-92377750D01*
X84022607Y-92813179D02*
X83514607Y-91289179D01*
X83006607Y-92813179D01*
X81772893Y-92813179D02*
X82498607Y-92813179D01*
X82498607Y-91289179D01*
X107789750Y-35663179D02*
X107789750Y-34139179D01*
X107426893Y-34139179D01*
X107209178Y-34211750D01*
X107064036Y-34356893D01*
X106991464Y-34502036D01*
X106918893Y-34792321D01*
X106918893Y-35010036D01*
X106991464Y-35300321D01*
X107064036Y-35445464D01*
X107209178Y-35590607D01*
X107426893Y-35663179D01*
X107789750Y-35663179D01*
X106265750Y-34864893D02*
X105757750Y-34864893D01*
X105540036Y-35663179D02*
X106265750Y-35663179D01*
X106265750Y-34139179D01*
X105540036Y-34139179D01*
X105104607Y-34139179D02*
X104596607Y-35663179D01*
X104088607Y-34139179D01*
X103580607Y-35663179D02*
X103580607Y-34139179D01*
X102854893Y-35663179D02*
X102854893Y-34139179D01*
X102492036Y-34139179D01*
X102274321Y-34211750D01*
X102129179Y-34356893D01*
X102056607Y-34502036D01*
X101984036Y-34792321D01*
X101984036Y-35010036D01*
X102056607Y-35300321D01*
X102129179Y-35445464D01*
X102274321Y-35590607D01*
X102492036Y-35663179D01*
X102854893Y-35663179D01*
X101330893Y-34864893D02*
X100822893Y-34864893D01*
X100605179Y-35663179D02*
X101330893Y-35663179D01*
X101330893Y-34139179D01*
X100605179Y-34139179D01*
X104233750Y-53189179D02*
X104233750Y-53552036D01*
X104596607Y-53406893D02*
X104233750Y-53552036D01*
X103870892Y-53406893D01*
X104451464Y-53842321D02*
X104233750Y-53552036D01*
X104016035Y-53842321D01*
X104814321Y-73182607D02*
X103653178Y-73182607D01*
X104814321Y-92232607D02*
X103653178Y-92232607D01*
X104233749Y-92813179D02*
X104233749Y-91652036D01*
D11*
X74682416Y-68236131D02*
X75015750Y-67759940D01*
X75253845Y-68236131D02*
X75253845Y-67236131D01*
X74872892Y-67236131D01*
X74777654Y-67283750D01*
X74730035Y-67331369D01*
X74682416Y-67426607D01*
X74682416Y-67569464D01*
X74730035Y-67664702D01*
X74777654Y-67712321D01*
X74872892Y-67759940D01*
X75253845Y-67759940D01*
X73730035Y-68236131D02*
X74301464Y-68236131D01*
X74015750Y-68236131D02*
X74015750Y-67236131D01*
X74110988Y-67378988D01*
X74206226Y-67474226D01*
X74301464Y-67521845D01*
X72904416Y-60616131D02*
X73237750Y-60139940D01*
X73475845Y-60616131D02*
X73475845Y-59616131D01*
X73094892Y-59616131D01*
X72999654Y-59663750D01*
X72952035Y-59711369D01*
X72904416Y-59806607D01*
X72904416Y-59949464D01*
X72952035Y-60044702D01*
X72999654Y-60092321D01*
X73094892Y-60139940D01*
X73475845Y-60139940D01*
X72523464Y-59711369D02*
X72475845Y-59663750D01*
X72380607Y-59616131D01*
X72142511Y-59616131D01*
X72047273Y-59663750D01*
X71999654Y-59711369D01*
X71952035Y-59806607D01*
X71952035Y-59901845D01*
X71999654Y-60044702D01*
X72571083Y-60616131D01*
X71952035Y-60616131D01*
X74460131Y-46155084D02*
X73983940Y-45821750D01*
X74460131Y-45583655D02*
X73460131Y-45583655D01*
X73460131Y-45964608D01*
X73507750Y-46059846D01*
X73555369Y-46107465D01*
X73650607Y-46155084D01*
X73793464Y-46155084D01*
X73888702Y-46107465D01*
X73936321Y-46059846D01*
X73983940Y-45964608D01*
X73983940Y-45583655D01*
X73460131Y-46488417D02*
X73460131Y-47107465D01*
X73841083Y-46774131D01*
X73841083Y-46916989D01*
X73888702Y-47012227D01*
X73936321Y-47059846D01*
X74031560Y-47107465D01*
X74269655Y-47107465D01*
X74364893Y-47059846D01*
X74412512Y-47012227D01*
X74460131Y-46916989D01*
X74460131Y-46631274D01*
X74412512Y-46536036D01*
X74364893Y-46488417D01*
X76146131Y-41427084D02*
X75669940Y-41093750D01*
X76146131Y-40855655D02*
X75146131Y-40855655D01*
X75146131Y-41236608D01*
X75193750Y-41331846D01*
X75241369Y-41379465D01*
X75336607Y-41427084D01*
X75479464Y-41427084D01*
X75574702Y-41379465D01*
X75622321Y-41331846D01*
X75669940Y-41236608D01*
X75669940Y-40855655D01*
X75479464Y-42284227D02*
X76146131Y-42284227D01*
X75098512Y-42046131D02*
X75812798Y-41808036D01*
X75812798Y-42427084D01*
X79686512Y-70388417D02*
X79734131Y-70531274D01*
X79734131Y-70769370D01*
X79686512Y-70864608D01*
X79638893Y-70912227D01*
X79543655Y-70959846D01*
X79448417Y-70959846D01*
X79353179Y-70912227D01*
X79305560Y-70864608D01*
X79257940Y-70769370D01*
X79210321Y-70578893D01*
X79162702Y-70483655D01*
X79115083Y-70436036D01*
X79019845Y-70388417D01*
X78924607Y-70388417D01*
X78829369Y-70436036D01*
X78781750Y-70483655D01*
X78734131Y-70578893D01*
X78734131Y-70816989D01*
X78781750Y-70959846D01*
X78734131Y-71293179D02*
X79734131Y-71531274D01*
X79019845Y-71721751D01*
X79734131Y-71912227D01*
X78734131Y-72150322D01*
X79734131Y-73055084D02*
X79734131Y-72483655D01*
X79734131Y-72769369D02*
X78734131Y-72769369D01*
X78876988Y-72674131D01*
X78972226Y-72578893D01*
X79019845Y-72483655D01*
D12*
X99546131Y-94498512D02*
X99546131Y-94022321D01*
X98546131Y-94022321D01*
X99022321Y-94831845D02*
X99022321Y-95165179D01*
X99546131Y-95308036D02*
X99546131Y-94831845D01*
X98546131Y-94831845D01*
X98546131Y-95308036D01*
X99546131Y-95736607D02*
X98546131Y-95736607D01*
X98546131Y-95974702D01*
X98593750Y-96117560D01*
X98688988Y-96212798D01*
X98784226Y-96260417D01*
X98974702Y-96308036D01*
X99117560Y-96308036D01*
X99308036Y-96260417D01*
X99403274Y-96212798D01*
X99498512Y-96117560D01*
X99546131Y-95974702D01*
X99546131Y-95736607D01*
X99546131Y-97260417D02*
X99546131Y-96688988D01*
X99546131Y-96974702D02*
X98546131Y-96974702D01*
X98688988Y-96879464D01*
X98784226Y-96784226D01*
X98831845Y-96688988D01*
X98546131Y-98117560D02*
X98546131Y-97927083D01*
X98593750Y-97831845D01*
X98641369Y-97784226D01*
X98784226Y-97688988D01*
X98974702Y-97641369D01*
X99355655Y-97641369D01*
X99450893Y-97688988D01*
X99498512Y-97736607D01*
X99546131Y-97831845D01*
X99546131Y-98022322D01*
X99498512Y-98117560D01*
X99450893Y-98165179D01*
X99355655Y-98212798D01*
X99117560Y-98212798D01*
X99022321Y-98165179D01*
X98974702Y-98117560D01*
X98927083Y-98022322D01*
X98927083Y-97831845D01*
X98974702Y-97736607D01*
X99022321Y-97688988D01*
X99117560Y-97641369D01*
X80446131Y-94298512D02*
X80446131Y-93822321D01*
X79446131Y-93822321D01*
X79922321Y-94631845D02*
X79922321Y-94965179D01*
X80446131Y-95108036D02*
X80446131Y-94631845D01*
X79446131Y-94631845D01*
X79446131Y-95108036D01*
X80446131Y-95536607D02*
X79446131Y-95536607D01*
X79446131Y-95774702D01*
X79493750Y-95917560D01*
X79588988Y-96012798D01*
X79684226Y-96060417D01*
X79874702Y-96108036D01*
X80017560Y-96108036D01*
X80208036Y-96060417D01*
X80303274Y-96012798D01*
X80398512Y-95917560D01*
X80446131Y-95774702D01*
X80446131Y-95536607D01*
X80446131Y-97060417D02*
X80446131Y-96488988D01*
X80446131Y-96774702D02*
X79446131Y-96774702D01*
X79588988Y-96679464D01*
X79684226Y-96584226D01*
X79731845Y-96488988D01*
X79446131Y-97965179D02*
X79446131Y-97488988D01*
X79922321Y-97441369D01*
X79874702Y-97488988D01*
X79827083Y-97584226D01*
X79827083Y-97822322D01*
X79874702Y-97917560D01*
X79922321Y-97965179D01*
X80017560Y-98012798D01*
X80255655Y-98012798D01*
X80350893Y-97965179D01*
X80398512Y-97917560D01*
X80446131Y-97822322D01*
X80446131Y-97584226D01*
X80398512Y-97488988D01*
X80350893Y-97441369D01*
X61546131Y-93998512D02*
X61546131Y-93522321D01*
X60546131Y-93522321D01*
X61022321Y-94331845D02*
X61022321Y-94665179D01*
X61546131Y-94808036D02*
X61546131Y-94331845D01*
X60546131Y-94331845D01*
X60546131Y-94808036D01*
X61546131Y-95236607D02*
X60546131Y-95236607D01*
X60546131Y-95474702D01*
X60593750Y-95617560D01*
X60688988Y-95712798D01*
X60784226Y-95760417D01*
X60974702Y-95808036D01*
X61117560Y-95808036D01*
X61308036Y-95760417D01*
X61403274Y-95712798D01*
X61498512Y-95617560D01*
X61546131Y-95474702D01*
X61546131Y-95236607D01*
X61546131Y-96760417D02*
X61546131Y-96188988D01*
X61546131Y-96474702D02*
X60546131Y-96474702D01*
X60688988Y-96379464D01*
X60784226Y-96284226D01*
X60831845Y-96188988D01*
X60879464Y-97617560D02*
X61546131Y-97617560D01*
X60498512Y-97379464D02*
X61212798Y-97141369D01*
X61212798Y-97760417D01*
X42046131Y-93998512D02*
X42046131Y-93522321D01*
X41046131Y-93522321D01*
X41522321Y-94331845D02*
X41522321Y-94665179D01*
X42046131Y-94808036D02*
X42046131Y-94331845D01*
X41046131Y-94331845D01*
X41046131Y-94808036D01*
X42046131Y-95236607D02*
X41046131Y-95236607D01*
X41046131Y-95474702D01*
X41093750Y-95617560D01*
X41188988Y-95712798D01*
X41284226Y-95760417D01*
X41474702Y-95808036D01*
X41617560Y-95808036D01*
X41808036Y-95760417D01*
X41903274Y-95712798D01*
X41998512Y-95617560D01*
X42046131Y-95474702D01*
X42046131Y-95236607D01*
X42046131Y-96760417D02*
X42046131Y-96188988D01*
X42046131Y-96474702D02*
X41046131Y-96474702D01*
X41188988Y-96379464D01*
X41284226Y-96284226D01*
X41331845Y-96188988D01*
X41046131Y-97093750D02*
X41046131Y-97712798D01*
X41427083Y-97379464D01*
X41427083Y-97522322D01*
X41474702Y-97617560D01*
X41522321Y-97665179D01*
X41617560Y-97712798D01*
X41855655Y-97712798D01*
X41950893Y-97665179D01*
X41998512Y-97617560D01*
X42046131Y-97522322D01*
X42046131Y-97236607D01*
X41998512Y-97141369D01*
X41950893Y-97093750D01*
X99246131Y-75198512D02*
X99246131Y-74722321D01*
X98246131Y-74722321D01*
X98722321Y-75531845D02*
X98722321Y-75865179D01*
X99246131Y-76008036D02*
X99246131Y-75531845D01*
X98246131Y-75531845D01*
X98246131Y-76008036D01*
X99246131Y-76436607D02*
X98246131Y-76436607D01*
X98246131Y-76674702D01*
X98293750Y-76817560D01*
X98388988Y-76912798D01*
X98484226Y-76960417D01*
X98674702Y-77008036D01*
X98817560Y-77008036D01*
X99008036Y-76960417D01*
X99103274Y-76912798D01*
X99198512Y-76817560D01*
X99246131Y-76674702D01*
X99246131Y-76436607D01*
X99246131Y-77960417D02*
X99246131Y-77388988D01*
X99246131Y-77674702D02*
X98246131Y-77674702D01*
X98388988Y-77579464D01*
X98484226Y-77484226D01*
X98531845Y-77388988D01*
X98341369Y-78341369D02*
X98293750Y-78388988D01*
X98246131Y-78484226D01*
X98246131Y-78722322D01*
X98293750Y-78817560D01*
X98341369Y-78865179D01*
X98436607Y-78912798D01*
X98531845Y-78912798D01*
X98674702Y-78865179D01*
X99246131Y-78293750D01*
X99246131Y-78912798D01*
X80246131Y-75398512D02*
X80246131Y-74922321D01*
X79246131Y-74922321D01*
X79722321Y-75731845D02*
X79722321Y-76065179D01*
X80246131Y-76208036D02*
X80246131Y-75731845D01*
X79246131Y-75731845D01*
X79246131Y-76208036D01*
X80246131Y-76636607D02*
X79246131Y-76636607D01*
X79246131Y-76874702D01*
X79293750Y-77017560D01*
X79388988Y-77112798D01*
X79484226Y-77160417D01*
X79674702Y-77208036D01*
X79817560Y-77208036D01*
X80008036Y-77160417D01*
X80103274Y-77112798D01*
X80198512Y-77017560D01*
X80246131Y-76874702D01*
X80246131Y-76636607D01*
X80246131Y-78160417D02*
X80246131Y-77588988D01*
X80246131Y-77874702D02*
X79246131Y-77874702D01*
X79388988Y-77779464D01*
X79484226Y-77684226D01*
X79531845Y-77588988D01*
X80246131Y-79112798D02*
X80246131Y-78541369D01*
X80246131Y-78827083D02*
X79246131Y-78827083D01*
X79388988Y-78731845D01*
X79484226Y-78636607D01*
X79531845Y-78541369D01*
X61346131Y-75398512D02*
X61346131Y-74922321D01*
X60346131Y-74922321D01*
X60822321Y-75731845D02*
X60822321Y-76065179D01*
X61346131Y-76208036D02*
X61346131Y-75731845D01*
X60346131Y-75731845D01*
X60346131Y-76208036D01*
X61346131Y-76636607D02*
X60346131Y-76636607D01*
X60346131Y-76874702D01*
X60393750Y-77017560D01*
X60488988Y-77112798D01*
X60584226Y-77160417D01*
X60774702Y-77208036D01*
X60917560Y-77208036D01*
X61108036Y-77160417D01*
X61203274Y-77112798D01*
X61298512Y-77017560D01*
X61346131Y-76874702D01*
X61346131Y-76636607D01*
X61346131Y-78160417D02*
X61346131Y-77588988D01*
X61346131Y-77874702D02*
X60346131Y-77874702D01*
X60488988Y-77779464D01*
X60584226Y-77684226D01*
X60631845Y-77588988D01*
X60346131Y-78779464D02*
X60346131Y-78874703D01*
X60393750Y-78969941D01*
X60441369Y-79017560D01*
X60536607Y-79065179D01*
X60727083Y-79112798D01*
X60965179Y-79112798D01*
X61155655Y-79065179D01*
X61250893Y-79017560D01*
X61298512Y-78969941D01*
X61346131Y-78874703D01*
X61346131Y-78779464D01*
X61298512Y-78684226D01*
X61250893Y-78636607D01*
X61155655Y-78588988D01*
X60965179Y-78541369D01*
X60727083Y-78541369D01*
X60536607Y-78588988D01*
X60441369Y-78636607D01*
X60393750Y-78684226D01*
X60346131Y-78779464D01*
X42446131Y-75574703D02*
X42446131Y-75098512D01*
X41446131Y-75098512D01*
X41922321Y-75908036D02*
X41922321Y-76241370D01*
X42446131Y-76384227D02*
X42446131Y-75908036D01*
X41446131Y-75908036D01*
X41446131Y-76384227D01*
X42446131Y-76812798D02*
X41446131Y-76812798D01*
X41446131Y-77050893D01*
X41493750Y-77193751D01*
X41588988Y-77288989D01*
X41684226Y-77336608D01*
X41874702Y-77384227D01*
X42017560Y-77384227D01*
X42208036Y-77336608D01*
X42303274Y-77288989D01*
X42398512Y-77193751D01*
X42446131Y-77050893D01*
X42446131Y-76812798D01*
X42446131Y-77860417D02*
X42446131Y-78050893D01*
X42398512Y-78146132D01*
X42350893Y-78193751D01*
X42208036Y-78288989D01*
X42017560Y-78336608D01*
X41636607Y-78336608D01*
X41541369Y-78288989D01*
X41493750Y-78241370D01*
X41446131Y-78146132D01*
X41446131Y-77955655D01*
X41493750Y-77860417D01*
X41541369Y-77812798D01*
X41636607Y-77765179D01*
X41874702Y-77765179D01*
X41969940Y-77812798D01*
X42017560Y-77860417D01*
X42065179Y-77955655D01*
X42065179Y-78146132D01*
X42017560Y-78241370D01*
X41969940Y-78288989D01*
X41874702Y-78336608D01*
X99546131Y-56674703D02*
X99546131Y-56198512D01*
X98546131Y-56198512D01*
X99022321Y-57008036D02*
X99022321Y-57341370D01*
X99546131Y-57484227D02*
X99546131Y-57008036D01*
X98546131Y-57008036D01*
X98546131Y-57484227D01*
X99546131Y-57912798D02*
X98546131Y-57912798D01*
X98546131Y-58150893D01*
X98593750Y-58293751D01*
X98688988Y-58388989D01*
X98784226Y-58436608D01*
X98974702Y-58484227D01*
X99117560Y-58484227D01*
X99308036Y-58436608D01*
X99403274Y-58388989D01*
X99498512Y-58293751D01*
X99546131Y-58150893D01*
X99546131Y-57912798D01*
X98974702Y-59055655D02*
X98927083Y-58960417D01*
X98879464Y-58912798D01*
X98784226Y-58865179D01*
X98736607Y-58865179D01*
X98641369Y-58912798D01*
X98593750Y-58960417D01*
X98546131Y-59055655D01*
X98546131Y-59246132D01*
X98593750Y-59341370D01*
X98641369Y-59388989D01*
X98736607Y-59436608D01*
X98784226Y-59436608D01*
X98879464Y-59388989D01*
X98927083Y-59341370D01*
X98974702Y-59246132D01*
X98974702Y-59055655D01*
X99022321Y-58960417D01*
X99069940Y-58912798D01*
X99165179Y-58865179D01*
X99355655Y-58865179D01*
X99450893Y-58912798D01*
X99498512Y-58960417D01*
X99546131Y-59055655D01*
X99546131Y-59246132D01*
X99498512Y-59341370D01*
X99450893Y-59388989D01*
X99355655Y-59436608D01*
X99165179Y-59436608D01*
X99069940Y-59388989D01*
X99022321Y-59341370D01*
X98974702Y-59246132D01*
X80446131Y-57474703D02*
X80446131Y-56998512D01*
X79446131Y-56998512D01*
X79922321Y-57808036D02*
X79922321Y-58141370D01*
X80446131Y-58284227D02*
X80446131Y-57808036D01*
X79446131Y-57808036D01*
X79446131Y-58284227D01*
X80446131Y-58712798D02*
X79446131Y-58712798D01*
X79446131Y-58950893D01*
X79493750Y-59093751D01*
X79588988Y-59188989D01*
X79684226Y-59236608D01*
X79874702Y-59284227D01*
X80017560Y-59284227D01*
X80208036Y-59236608D01*
X80303274Y-59188989D01*
X80398512Y-59093751D01*
X80446131Y-58950893D01*
X80446131Y-58712798D01*
X79446131Y-59617560D02*
X79446131Y-60284227D01*
X80446131Y-59855655D01*
X61446131Y-56474703D02*
X61446131Y-55998512D01*
X60446131Y-55998512D01*
X60922321Y-56808036D02*
X60922321Y-57141370D01*
X61446131Y-57284227D02*
X61446131Y-56808036D01*
X60446131Y-56808036D01*
X60446131Y-57284227D01*
X61446131Y-57712798D02*
X60446131Y-57712798D01*
X60446131Y-57950893D01*
X60493750Y-58093751D01*
X60588988Y-58188989D01*
X60684226Y-58236608D01*
X60874702Y-58284227D01*
X61017560Y-58284227D01*
X61208036Y-58236608D01*
X61303274Y-58188989D01*
X61398512Y-58093751D01*
X61446131Y-57950893D01*
X61446131Y-57712798D01*
X60446131Y-59141370D02*
X60446131Y-58950893D01*
X60493750Y-58855655D01*
X60541369Y-58808036D01*
X60684226Y-58712798D01*
X60874702Y-58665179D01*
X61255655Y-58665179D01*
X61350893Y-58712798D01*
X61398512Y-58760417D01*
X61446131Y-58855655D01*
X61446131Y-59046132D01*
X61398512Y-59141370D01*
X61350893Y-59188989D01*
X61255655Y-59236608D01*
X61017560Y-59236608D01*
X60922321Y-59188989D01*
X60874702Y-59141370D01*
X60827083Y-59046132D01*
X60827083Y-58855655D01*
X60874702Y-58760417D01*
X60922321Y-58712798D01*
X61017560Y-58665179D01*
X42446131Y-56874703D02*
X42446131Y-56398512D01*
X41446131Y-56398512D01*
X41922321Y-57208036D02*
X41922321Y-57541370D01*
X42446131Y-57684227D02*
X42446131Y-57208036D01*
X41446131Y-57208036D01*
X41446131Y-57684227D01*
X42446131Y-58112798D02*
X41446131Y-58112798D01*
X41446131Y-58350893D01*
X41493750Y-58493751D01*
X41588988Y-58588989D01*
X41684226Y-58636608D01*
X41874702Y-58684227D01*
X42017560Y-58684227D01*
X42208036Y-58636608D01*
X42303274Y-58588989D01*
X42398512Y-58493751D01*
X42446131Y-58350893D01*
X42446131Y-58112798D01*
X41446131Y-59588989D02*
X41446131Y-59112798D01*
X41922321Y-59065179D01*
X41874702Y-59112798D01*
X41827083Y-59208036D01*
X41827083Y-59446132D01*
X41874702Y-59541370D01*
X41922321Y-59588989D01*
X42017560Y-59636608D01*
X42255655Y-59636608D01*
X42350893Y-59588989D01*
X42398512Y-59541370D01*
X42446131Y-59446132D01*
X42446131Y-59208036D01*
X42398512Y-59112798D01*
X42350893Y-59065179D01*
X99346131Y-37674703D02*
X99346131Y-37198512D01*
X98346131Y-37198512D01*
X98822321Y-38008036D02*
X98822321Y-38341370D01*
X99346131Y-38484227D02*
X99346131Y-38008036D01*
X98346131Y-38008036D01*
X98346131Y-38484227D01*
X99346131Y-38912798D02*
X98346131Y-38912798D01*
X98346131Y-39150893D01*
X98393750Y-39293751D01*
X98488988Y-39388989D01*
X98584226Y-39436608D01*
X98774702Y-39484227D01*
X98917560Y-39484227D01*
X99108036Y-39436608D01*
X99203274Y-39388989D01*
X99298512Y-39293751D01*
X99346131Y-39150893D01*
X99346131Y-38912798D01*
X98679464Y-40341370D02*
X99346131Y-40341370D01*
X98298512Y-40103274D02*
X99012798Y-39865179D01*
X99012798Y-40484227D01*
X80746131Y-39374703D02*
X80746131Y-38898512D01*
X79746131Y-38898512D01*
X80222321Y-39708036D02*
X80222321Y-40041370D01*
X80746131Y-40184227D02*
X80746131Y-39708036D01*
X79746131Y-39708036D01*
X79746131Y-40184227D01*
X80746131Y-40612798D02*
X79746131Y-40612798D01*
X79746131Y-40850893D01*
X79793750Y-40993751D01*
X79888988Y-41088989D01*
X79984226Y-41136608D01*
X80174702Y-41184227D01*
X80317560Y-41184227D01*
X80508036Y-41136608D01*
X80603274Y-41088989D01*
X80698512Y-40993751D01*
X80746131Y-40850893D01*
X80746131Y-40612798D01*
X79746131Y-41517560D02*
X79746131Y-42136608D01*
X80127083Y-41803274D01*
X80127083Y-41946132D01*
X80174702Y-42041370D01*
X80222321Y-42088989D01*
X80317560Y-42136608D01*
X80555655Y-42136608D01*
X80650893Y-42088989D01*
X80698512Y-42041370D01*
X80746131Y-41946132D01*
X80746131Y-41660417D01*
X80698512Y-41565179D01*
X80650893Y-41517560D01*
X61546131Y-37674703D02*
X61546131Y-37198512D01*
X60546131Y-37198512D01*
X61022321Y-38008036D02*
X61022321Y-38341370D01*
X61546131Y-38484227D02*
X61546131Y-38008036D01*
X60546131Y-38008036D01*
X60546131Y-38484227D01*
X61546131Y-38912798D02*
X60546131Y-38912798D01*
X60546131Y-39150893D01*
X60593750Y-39293751D01*
X60688988Y-39388989D01*
X60784226Y-39436608D01*
X60974702Y-39484227D01*
X61117560Y-39484227D01*
X61308036Y-39436608D01*
X61403274Y-39388989D01*
X61498512Y-39293751D01*
X61546131Y-39150893D01*
X61546131Y-38912798D01*
X60641369Y-39865179D02*
X60593750Y-39912798D01*
X60546131Y-40008036D01*
X60546131Y-40246132D01*
X60593750Y-40341370D01*
X60641369Y-40388989D01*
X60736607Y-40436608D01*
X60831845Y-40436608D01*
X60974702Y-40388989D01*
X61546131Y-39817560D01*
X61546131Y-40436608D01*
X42456131Y-37582703D02*
X42456131Y-37106512D01*
X41456131Y-37106512D01*
X41932321Y-37916036D02*
X41932321Y-38249370D01*
X42456131Y-38392227D02*
X42456131Y-37916036D01*
X41456131Y-37916036D01*
X41456131Y-38392227D01*
X42456131Y-38820798D02*
X41456131Y-38820798D01*
X41456131Y-39058893D01*
X41503750Y-39201751D01*
X41598988Y-39296989D01*
X41694226Y-39344608D01*
X41884702Y-39392227D01*
X42027560Y-39392227D01*
X42218036Y-39344608D01*
X42313274Y-39296989D01*
X42408512Y-39201751D01*
X42456131Y-39058893D01*
X42456131Y-38820798D01*
X42456131Y-40344608D02*
X42456131Y-39773179D01*
X42456131Y-40058893D02*
X41456131Y-40058893D01*
X41598988Y-39963655D01*
X41694226Y-39868417D01*
X41741845Y-39773179D01*
D14*
X80046131Y-51731845D02*
X80855655Y-51731845D01*
X80950893Y-51779464D01*
X80998512Y-51827083D01*
X81046131Y-51922321D01*
X81046131Y-52112798D01*
X80998512Y-52208036D01*
X80950893Y-52255655D01*
X80855655Y-52303274D01*
X80046131Y-52303274D01*
X81046131Y-53303274D02*
X81046131Y-52731845D01*
X81046131Y-53017559D02*
X80046131Y-53017559D01*
X80188988Y-52922321D01*
X80284226Y-52827083D01*
X80331845Y-52731845D01*
D11*
X90253395Y-54678944D02*
X89074883Y-54914646D01*
X89781990Y-54207539D02*
X89546288Y-55386051D01*
X88435120Y-54274882D02*
X88839181Y-54678944D01*
X88637151Y-54476913D02*
X89344258Y-53769807D01*
X89310586Y-53938165D01*
X89310586Y-54072852D01*
X89344258Y-54173867D01*
M02*
