G04 #@! TF.FileFunction,Copper,L2,Bot,Signal*
%FSLAX46Y46*%
G04 Gerber Fmt 4.6, Leading zero omitted, Abs format (unit mm)*
G04 Created by KiCad (PCBNEW 4.0.5) date 02/28/17 13:31:52*
%MOMM*%
%LPD*%
G01*
G04 APERTURE LIST*
%ADD10C,0.100000*%
%ADD11C,1.000000*%
%ADD12C,1.400000*%
%ADD13R,1.400000X1.200000*%
%ADD14R,1.200000X1.400000*%
%ADD15R,1.000000X1.250000*%
%ADD16R,1.250000X1.000000*%
%ADD17R,0.500000X1.400000*%
%ADD18O,1.300000X3.800000*%
%ADD19O,3.000000X3.000000*%
%ADD20R,0.700000X1.300000*%
%ADD21R,1.300000X0.700000*%
%ADD22R,1.000000X1.700000*%
%ADD23R,1.800000X1.400000*%
%ADD24R,0.300000X0.950000*%
%ADD25R,0.950000X0.300000*%
%ADD26R,5.400000X5.400000*%
%ADD27C,6.100000*%
%ADD28C,0.600000*%
%ADD29C,0.300000*%
%ADD30C,0.210000*%
%ADD31C,0.250000*%
%ADD32C,0.300000*%
%ADD33C,0.400000*%
G04 APERTURE END LIST*
D10*
D11*
X83393750Y-54093750D03*
X84643750Y-54093750D03*
X85893750Y-54093750D03*
X82143750Y-54093750D03*
X80893750Y-54093750D03*
D12*
X91025750Y-50475750D03*
X91025750Y-55375750D03*
D13*
X54449750Y-48529750D03*
X54449750Y-45129750D03*
X41241750Y-66719750D03*
X41241750Y-70119750D03*
X41443750Y-83793750D03*
X41443750Y-87193750D03*
D14*
X47393750Y-107593750D03*
X50793750Y-107593750D03*
D13*
X58767750Y-48529750D03*
X58767750Y-45129750D03*
X60291750Y-66719750D03*
X60291750Y-70119750D03*
X60291750Y-85769750D03*
X60291750Y-89169750D03*
X60291750Y-104057750D03*
X60291750Y-107457750D03*
X93311750Y-47005750D03*
X93311750Y-43605750D03*
X85691750Y-66973750D03*
X85691750Y-70373750D03*
X79341750Y-85769750D03*
X79341750Y-89169750D03*
X79341750Y-104311750D03*
X79341750Y-107711750D03*
X96359750Y-47005750D03*
X96359750Y-43605750D03*
X98391750Y-66719750D03*
X98391750Y-70119750D03*
X98391750Y-85769750D03*
X98391750Y-89169750D03*
X98391750Y-104311750D03*
X98391750Y-107711750D03*
D15*
X94851750Y-50385750D03*
X96851750Y-50385750D03*
X94851750Y-55465750D03*
X96851750Y-55465750D03*
D16*
X69435750Y-49639750D03*
X69435750Y-51639750D03*
D15*
X81897750Y-50639750D03*
X83897750Y-50639750D03*
D16*
X67657750Y-49639750D03*
X67657750Y-51639750D03*
X65879750Y-49639750D03*
X65879750Y-51639750D03*
X85691750Y-51131750D03*
X85691750Y-49131750D03*
X53179750Y-38939750D03*
X53179750Y-36939750D03*
D15*
X90501750Y-35145750D03*
X88501750Y-35145750D03*
D16*
X91279750Y-38939750D03*
X91279750Y-36939750D03*
X110329750Y-38939750D03*
X110329750Y-36939750D03*
X53179750Y-57989750D03*
X53179750Y-55989750D03*
X58767750Y-58243750D03*
X58767750Y-56243750D03*
D15*
X92533750Y-57751750D03*
X90533750Y-57751750D03*
D16*
X110093750Y-58093750D03*
X110093750Y-56093750D03*
X53179750Y-77039750D03*
X53179750Y-75039750D03*
X73499750Y-81865750D03*
X73499750Y-79865750D03*
X91093750Y-77093750D03*
X91093750Y-75093750D03*
X110093750Y-77093750D03*
X110093750Y-75093750D03*
X53093750Y-94093750D03*
X53093750Y-96093750D03*
X72093750Y-94093750D03*
X72093750Y-96093750D03*
X91093750Y-94093750D03*
X91093750Y-96093750D03*
X110093750Y-94093750D03*
X110093750Y-96093750D03*
X77817750Y-45035750D03*
X77817750Y-43035750D03*
D17*
X74093750Y-39453750D03*
X74893750Y-39453750D03*
X75693750Y-39453750D03*
X76493750Y-39453750D03*
X77293750Y-39453750D03*
D18*
X72043750Y-37053750D03*
X79343750Y-37053750D03*
D19*
X50488750Y-46543750D03*
X44563750Y-48063750D03*
X50488750Y-65593750D03*
X44563750Y-67113750D03*
X50488750Y-84643750D03*
X44563750Y-86163750D03*
X50488750Y-103693750D03*
X44563750Y-105213750D03*
X69538750Y-46543750D03*
X63613750Y-48063750D03*
X69538750Y-65593750D03*
X63613750Y-67113750D03*
X69538750Y-84643750D03*
X63613750Y-86163750D03*
X69538750Y-103693750D03*
X63613750Y-105213750D03*
X88588750Y-46543750D03*
X82663750Y-48063750D03*
X88588750Y-65593750D03*
X82663750Y-67113750D03*
X88588750Y-84643750D03*
X82663750Y-86163750D03*
X88588750Y-103693750D03*
X82663750Y-105213750D03*
X107638750Y-46543750D03*
X101713750Y-48063750D03*
X107638750Y-65593750D03*
X101713750Y-67113750D03*
X107638750Y-84643750D03*
X101713750Y-86163750D03*
X107638750Y-103693750D03*
X101713750Y-105213750D03*
D20*
X73565750Y-66133750D03*
X75465750Y-66133750D03*
X71787750Y-58513750D03*
X73687750Y-58513750D03*
D21*
X74007750Y-44985750D03*
X74007750Y-43085750D03*
X75785750Y-44985750D03*
X75785750Y-43085750D03*
D22*
X77431750Y-74871750D03*
X77431750Y-68571750D03*
X73631750Y-74871750D03*
X73631750Y-68571750D03*
D23*
X107533750Y-94125000D03*
X107533750Y-97425000D03*
X100933750Y-97425000D03*
X100933750Y-94125000D03*
X88483750Y-94125000D03*
X88483750Y-97425000D03*
X81883750Y-97425000D03*
X81883750Y-94125000D03*
X69433750Y-94125000D03*
X69433750Y-97425000D03*
X62833750Y-97425000D03*
X62833750Y-94125000D03*
X50383750Y-94125000D03*
X50383750Y-97425000D03*
X43783750Y-97425000D03*
X43783750Y-94125000D03*
X107533750Y-75080000D03*
X107533750Y-78380000D03*
X100933750Y-78380000D03*
X100933750Y-75080000D03*
X88483750Y-75080000D03*
X88483750Y-78380000D03*
X81883750Y-78380000D03*
X81883750Y-75080000D03*
X69433750Y-75080000D03*
X69433750Y-78380000D03*
X62833750Y-78380000D03*
X62833750Y-75080000D03*
X50383750Y-75080000D03*
X50383750Y-78380000D03*
X43783750Y-78380000D03*
X43783750Y-75080000D03*
X107533750Y-56040000D03*
X107533750Y-59340000D03*
X100933750Y-59340000D03*
X100933750Y-56040000D03*
X88483750Y-56040000D03*
X88483750Y-59340000D03*
X81883750Y-59340000D03*
X81883750Y-56040000D03*
X69433750Y-56040000D03*
X69433750Y-59340000D03*
X62833750Y-59340000D03*
X62833750Y-56040000D03*
X50383750Y-56040000D03*
X50383750Y-59340000D03*
X43783750Y-59340000D03*
X43783750Y-56040000D03*
X107533750Y-36980000D03*
X107533750Y-40280000D03*
X100933750Y-40280000D03*
X100933750Y-36980000D03*
X88483750Y-36980000D03*
X88483750Y-40280000D03*
X81883750Y-40280000D03*
X81883750Y-36980000D03*
X69433750Y-36980000D03*
X69433750Y-40280000D03*
X62833750Y-40280000D03*
X62833750Y-36980000D03*
X50383750Y-36980000D03*
X50383750Y-40280000D03*
X43783750Y-40280000D03*
X43783750Y-36980000D03*
D24*
X73285750Y-49271750D03*
X73785750Y-49271750D03*
X74285750Y-49271750D03*
X74785750Y-49271750D03*
X75285750Y-49271750D03*
X75785750Y-49271750D03*
X76285750Y-49271750D03*
X76785750Y-49271750D03*
X77285750Y-49271750D03*
X77785750Y-49271750D03*
X78285750Y-49271750D03*
D25*
X79185750Y-50171750D03*
X79185750Y-50671750D03*
X79185750Y-51171750D03*
X79185750Y-51671750D03*
X79185750Y-52171750D03*
X79185750Y-52671750D03*
X79185750Y-53171750D03*
X79185750Y-53671750D03*
X79185750Y-54171750D03*
X79185750Y-54671750D03*
X79185750Y-55171750D03*
D24*
X78285750Y-56071750D03*
X77785750Y-56071750D03*
X77285750Y-56071750D03*
X76785750Y-56071750D03*
X76285750Y-56071750D03*
X75785750Y-56071750D03*
X75285750Y-56071750D03*
X74785750Y-56071750D03*
X74285750Y-56071750D03*
X73785750Y-56071750D03*
X73285750Y-56071750D03*
D25*
X72385750Y-55171750D03*
X72385750Y-54671750D03*
X72385750Y-54171750D03*
X72385750Y-53671750D03*
X72385750Y-53171750D03*
X72385750Y-52671750D03*
X72385750Y-52171750D03*
X72385750Y-51671750D03*
X72385750Y-51171750D03*
X72385750Y-50671750D03*
X72385750Y-50171750D03*
D26*
X75785750Y-52671750D03*
D10*
G36*
X89912057Y-51493859D02*
X90725230Y-50680686D01*
X91715179Y-51670635D01*
X90902006Y-52483808D01*
X89912057Y-51493859D01*
X89912057Y-51493859D01*
G37*
G36*
X90336321Y-54180865D02*
X91149494Y-53367692D01*
X92139443Y-54357641D01*
X91326270Y-55170814D01*
X90336321Y-54180865D01*
X90336321Y-54180865D01*
G37*
G36*
X91467692Y-53049494D02*
X92280865Y-52236321D01*
X93270814Y-53226270D01*
X92457641Y-54039443D01*
X91467692Y-53049494D01*
X91467692Y-53049494D01*
G37*
G36*
X88780686Y-52625230D02*
X89593859Y-51812057D01*
X90583808Y-52802006D01*
X89770635Y-53615179D01*
X88780686Y-52625230D01*
X88780686Y-52625230D01*
G37*
D11*
X77643750Y-48043750D03*
X77643750Y-46543750D03*
X78893750Y-48043750D03*
X78893750Y-46543750D03*
X80143750Y-48043750D03*
X80143750Y-46543750D03*
D27*
X38193750Y-52481250D03*
X38193750Y-90581250D03*
X113093750Y-71593750D03*
X113093750Y-52593750D03*
X113093750Y-91093750D03*
D28*
X82135750Y-42511750D03*
D29*
X108551750Y-60799750D03*
X107093750Y-44093750D03*
X61093750Y-45393750D03*
X61093750Y-49793750D03*
X54493750Y-41393750D03*
X54493750Y-39293750D03*
X92893750Y-39393750D03*
X92893750Y-38193750D03*
X92893750Y-35793750D03*
X81593750Y-58093750D03*
X79093750Y-58093750D03*
X54593750Y-58593750D03*
X54593750Y-60593750D03*
X54449750Y-77563750D03*
X54449750Y-79595750D03*
X92549750Y-57751750D03*
X91279750Y-60545750D03*
D28*
X58767750Y-58243750D03*
X62577750Y-59275750D03*
D29*
X92093750Y-77593750D03*
X92093750Y-79593750D03*
X54093750Y-96593750D03*
X54093750Y-99093750D03*
X73093750Y-96593750D03*
X73093750Y-99093750D03*
X92093750Y-96593750D03*
X92093750Y-99093750D03*
D28*
X84421750Y-49369750D03*
X75785750Y-47083750D03*
X98899750Y-48353750D03*
X99661750Y-45559750D03*
D29*
X88593750Y-55593750D03*
X71975750Y-77055750D03*
X71975750Y-79341750D03*
X70451750Y-58005750D03*
D28*
X67911750Y-55211750D03*
X60545750Y-56227750D03*
D29*
X105593750Y-50093750D03*
X88093750Y-50593750D03*
D28*
X72483750Y-57243750D03*
X72483750Y-60799750D03*
D30*
X82293750Y-45093750D03*
D28*
X56735750Y-50639750D03*
X56735750Y-52671750D03*
X70705750Y-48861750D03*
D29*
X51655750Y-71721750D03*
X71975750Y-71721750D03*
X75093750Y-58093750D03*
X74293750Y-57293750D03*
X76093750Y-59093750D03*
X90093750Y-71593750D03*
X87093750Y-71593750D03*
X75593750Y-57593750D03*
D28*
X69433750Y-40280000D03*
X81627750Y-36923750D03*
X108551750Y-38701750D03*
X41749750Y-55973750D03*
D29*
X108593750Y-88593750D03*
D28*
X109567750Y-79595750D03*
X80611750Y-49877750D03*
X73753750Y-64609750D03*
D30*
X77285750Y-49271750D03*
X78793750Y-46593750D03*
X77785750Y-49271750D03*
X78893750Y-47993750D03*
X80093750Y-46593750D03*
X78893750Y-49093750D03*
X83393750Y-54293750D03*
X80293750Y-55193750D03*
X84593750Y-54093750D03*
X79993750Y-53693750D03*
X82093750Y-54093750D03*
X80093750Y-54693750D03*
D31*
X94851750Y-50385750D02*
X91115750Y-50385750D01*
X91115750Y-50385750D02*
X91025750Y-50475750D01*
X79185750Y-52171750D02*
X87969750Y-52171750D01*
X87969750Y-52171750D02*
X89665750Y-50475750D01*
X91025750Y-50475750D02*
X89665750Y-50475750D01*
X90813618Y-51582247D02*
X90813618Y-50687882D01*
X90813618Y-50687882D02*
X91025750Y-50475750D01*
D32*
X78120000Y-40280000D02*
X78120000Y-42733500D01*
X78120000Y-42733500D02*
X77817750Y-43035750D01*
X82135750Y-42511750D02*
X82135750Y-40532000D01*
X82135750Y-40532000D02*
X81883750Y-40280000D01*
D33*
X64693750Y-45393750D02*
X64573750Y-45393750D01*
X64573750Y-45393750D02*
X62833750Y-43653750D01*
X61093750Y-45393750D02*
X64693750Y-45393750D01*
X64693750Y-45393750D02*
X64793750Y-45393750D01*
X64793750Y-45393750D02*
X64893750Y-45493750D01*
D32*
X71593750Y-40793750D02*
X71793750Y-40593750D01*
X71193750Y-41193750D02*
X71593750Y-40793750D01*
X69593750Y-42793750D02*
X71193750Y-41193750D01*
X69593750Y-43393750D02*
X69593750Y-42793750D01*
X67093750Y-45893750D02*
X69593750Y-43393750D01*
X65293750Y-45893750D02*
X67093750Y-45893750D01*
X64893750Y-45493750D02*
X65293750Y-45893750D01*
D33*
X61093750Y-45393750D02*
X62833750Y-43653750D01*
X60343750Y-79943750D02*
X61693750Y-78593750D01*
X61693750Y-78593750D02*
X62620000Y-78593750D01*
X62620000Y-78593750D02*
X62833750Y-78380000D01*
X54449750Y-79595750D02*
X54449750Y-79649750D01*
X59693750Y-80593750D02*
X60343750Y-79943750D01*
X60343750Y-79943750D02*
X60691750Y-79595750D01*
X55393750Y-80593750D02*
X59693750Y-80593750D01*
X54449750Y-79649750D02*
X55393750Y-80593750D01*
X54093750Y-99093750D02*
X54793750Y-99793750D01*
X59893750Y-98793750D02*
X59893750Y-98789750D01*
X58893750Y-99793750D02*
X59893750Y-98793750D01*
X54793750Y-99793750D02*
X58893750Y-99793750D01*
D32*
X77293750Y-39453750D02*
X77293750Y-37993750D01*
X73093750Y-39293750D02*
X71793750Y-40593750D01*
X73093750Y-38093750D02*
X73093750Y-39293750D01*
X73593750Y-37593750D02*
X73093750Y-38093750D01*
X76893750Y-37593750D02*
X73593750Y-37593750D01*
X77293750Y-37993750D02*
X76893750Y-37593750D01*
X54593750Y-60593750D02*
X55393750Y-61393750D01*
X59293750Y-61393750D02*
X60093750Y-60593750D01*
X55393750Y-61393750D02*
X59293750Y-61393750D01*
D33*
X100933750Y-61055750D02*
X100933750Y-63341750D01*
X102709750Y-65117750D02*
X100933750Y-63341750D01*
X105249750Y-65117750D02*
X102709750Y-65117750D01*
X107281750Y-63085750D02*
X105249750Y-65117750D01*
X107281750Y-62069750D02*
X107281750Y-63085750D01*
X108551750Y-60799750D02*
X107281750Y-62069750D01*
D32*
X71793750Y-40593750D02*
X72093750Y-40293750D01*
X72093750Y-37103750D02*
X72043750Y-37053750D01*
D33*
X77293750Y-39453750D02*
X77293750Y-39103750D01*
X65879750Y-51639750D02*
X63339750Y-51639750D01*
X62833750Y-43653750D02*
X62833750Y-40280000D01*
X61493750Y-50193750D02*
X61093750Y-49793750D01*
X61893750Y-50193750D02*
X61493750Y-50193750D01*
X63339750Y-51639750D02*
X61893750Y-50193750D01*
X43783750Y-40280000D02*
X43783750Y-43783750D01*
X54093750Y-41793750D02*
X54493750Y-41393750D01*
X51293750Y-41793750D02*
X54093750Y-41793750D01*
X50593750Y-42493750D02*
X51293750Y-41793750D01*
X50593750Y-43493750D02*
X50593750Y-42493750D01*
X47793750Y-46293750D02*
X50593750Y-43493750D01*
X46293750Y-46293750D02*
X47793750Y-46293750D01*
X43783750Y-43783750D02*
X46293750Y-46293750D01*
X53179750Y-38939750D02*
X54139750Y-38939750D01*
X54139750Y-38939750D02*
X54493750Y-39293750D01*
X62807500Y-40280000D02*
X62833750Y-40280000D01*
X91279750Y-38939750D02*
X92439750Y-38939750D01*
X92439750Y-38939750D02*
X92893750Y-39393750D01*
X90501750Y-35145750D02*
X92245750Y-35145750D01*
X92147750Y-38939750D02*
X91279750Y-38939750D01*
X92893750Y-38193750D02*
X92147750Y-38939750D01*
X92245750Y-35145750D02*
X92893750Y-35793750D01*
D31*
X78285750Y-56071750D02*
X78285750Y-57285750D01*
X81883750Y-58383750D02*
X81883750Y-59340000D01*
X81593750Y-58093750D02*
X81883750Y-58383750D01*
X78285750Y-57285750D02*
X79093750Y-58093750D01*
D33*
X60093750Y-60593750D02*
X61580000Y-60593750D01*
X61580000Y-60593750D02*
X62833750Y-59340000D01*
X43783750Y-59340000D02*
X43783750Y-62783750D01*
X53989750Y-57989750D02*
X53179750Y-57989750D01*
X54593750Y-58593750D02*
X53989750Y-57989750D01*
X54593750Y-66093750D02*
X54593750Y-60593750D01*
X52093750Y-68593750D02*
X54593750Y-66093750D01*
X49593750Y-68593750D02*
X52093750Y-68593750D01*
X43783750Y-62783750D02*
X49593750Y-68593750D01*
X100933750Y-78380000D02*
X99353500Y-78380000D01*
X99353500Y-78380000D02*
X98139750Y-79593750D01*
X62833750Y-78380000D02*
X62833750Y-81883750D01*
X73499750Y-84675750D02*
X73499750Y-81865750D01*
X70959750Y-87215750D02*
X73499750Y-84675750D01*
X68165750Y-87215750D02*
X70959750Y-87215750D01*
X62833750Y-81883750D02*
X68165750Y-87215750D01*
X73499750Y-81865750D02*
X76309750Y-81865750D01*
X76309750Y-81865750D02*
X79795500Y-78380000D01*
X79795500Y-78380000D02*
X81883750Y-78380000D01*
X43783750Y-78380000D02*
X43783750Y-82137750D01*
X43783750Y-82137750D02*
X48861750Y-87215750D01*
X48861750Y-87215750D02*
X52163750Y-87215750D01*
X52163750Y-87215750D02*
X54449750Y-84929750D01*
X54449750Y-84929750D02*
X54449750Y-79595750D01*
X53925750Y-77039750D02*
X53179750Y-77039750D01*
X54449750Y-77563750D02*
X53925750Y-77039750D01*
X61258500Y-97425000D02*
X62833750Y-97425000D01*
X59893750Y-98789750D02*
X61258500Y-97425000D01*
X73093750Y-99093750D02*
X78893750Y-99093750D01*
X80562500Y-97425000D02*
X81883750Y-97425000D01*
X78893750Y-99093750D02*
X80562500Y-97425000D01*
X92093750Y-99093750D02*
X97689750Y-99093750D01*
X99358500Y-97425000D02*
X100933750Y-97425000D01*
X97689750Y-99093750D02*
X99358500Y-97425000D01*
X92093750Y-79593750D02*
X98139750Y-79593750D01*
X99153750Y-60545750D02*
X100423750Y-60545750D01*
X100423750Y-60545750D02*
X100933750Y-61055750D01*
X100933750Y-59340000D02*
X100933750Y-61055750D01*
X91279750Y-60545750D02*
X99153750Y-60545750D01*
X99153750Y-60545750D02*
X99728000Y-60545750D01*
X99728000Y-60545750D02*
X100933750Y-59340000D01*
X81883750Y-59340000D02*
X81883750Y-63087750D01*
X92549750Y-57751750D02*
X92533750Y-57751750D01*
X89501750Y-60545750D02*
X91279750Y-60545750D01*
X88485750Y-61561750D02*
X89501750Y-60545750D01*
X88485750Y-62577750D02*
X88485750Y-61561750D01*
X85945750Y-65117750D02*
X88485750Y-62577750D01*
X83913750Y-65117750D02*
X85945750Y-65117750D01*
X81883750Y-63087750D02*
X83913750Y-65117750D01*
X92533750Y-57751750D02*
X95597750Y-57751750D01*
X96851750Y-56497750D02*
X96851750Y-55465750D01*
X95597750Y-57751750D02*
X96851750Y-56497750D01*
X62642000Y-59340000D02*
X62577750Y-59275750D01*
X62642000Y-59340000D02*
X62833750Y-59340000D01*
D32*
X81883750Y-78380000D02*
X81883750Y-81883750D01*
X92093750Y-77593750D02*
X91593750Y-77093750D01*
X92093750Y-85593750D02*
X92093750Y-79593750D01*
X90093750Y-87593750D02*
X92093750Y-85593750D01*
X87593750Y-87593750D02*
X90093750Y-87593750D01*
X81883750Y-81883750D02*
X87593750Y-87593750D01*
X91593750Y-77093750D02*
X91093750Y-77093750D01*
X100933750Y-78380000D02*
X100933750Y-80613750D01*
X100933750Y-80613750D02*
X100933750Y-81933750D01*
X110593750Y-85093750D02*
X110593750Y-77593750D01*
X108593750Y-87093750D02*
X110593750Y-85093750D01*
X106093750Y-87093750D02*
X108593750Y-87093750D01*
X100933750Y-81933750D02*
X106093750Y-87093750D01*
X110593750Y-77593750D02*
X110093750Y-77093750D01*
D31*
X43783750Y-97425000D02*
X43783750Y-101283750D01*
X54093750Y-96593750D02*
X53593750Y-96093750D01*
X54093750Y-104593750D02*
X54093750Y-99093750D01*
X52593750Y-106093750D02*
X54093750Y-104593750D01*
X48593750Y-106093750D02*
X52593750Y-106093750D01*
X43783750Y-101283750D02*
X48593750Y-106093750D01*
X53593750Y-96093750D02*
X53093750Y-96093750D01*
X62833750Y-97425000D02*
X62833750Y-101333750D01*
X62833750Y-101333750D02*
X67593750Y-106093750D01*
X67593750Y-106093750D02*
X71593750Y-106093750D01*
X71593750Y-106093750D02*
X73093750Y-104593750D01*
X73093750Y-104593750D02*
X73093750Y-99093750D01*
X73093750Y-96593750D02*
X72593750Y-96093750D01*
X72593750Y-96093750D02*
X72093750Y-96093750D01*
X81883750Y-97425000D02*
X81883750Y-100883750D01*
X81883750Y-100883750D02*
X87093750Y-106093750D01*
X87093750Y-106093750D02*
X89093750Y-106093750D01*
X89093750Y-106093750D02*
X92093750Y-103093750D01*
X92093750Y-103093750D02*
X92093750Y-99093750D01*
X92093750Y-96593750D02*
X91593750Y-96093750D01*
X91593750Y-96093750D02*
X91093750Y-96093750D01*
X100933750Y-97425000D02*
X100933750Y-100933750D01*
X100933750Y-100933750D02*
X106093750Y-106093750D01*
X106093750Y-106093750D02*
X108593750Y-106093750D01*
X108593750Y-106093750D02*
X110593750Y-104093750D01*
X110593750Y-104093750D02*
X110593750Y-96593750D01*
X110593750Y-96593750D02*
X110093750Y-96093750D01*
X110329750Y-38939750D02*
X110329750Y-40357750D01*
X110329750Y-40357750D02*
X107093750Y-43593750D01*
X107093750Y-43593750D02*
X107093750Y-44093750D01*
X100195750Y-46093750D02*
X99661750Y-45559750D01*
X107093750Y-44093750D02*
X105093750Y-46093750D01*
X105093750Y-46093750D02*
X100195750Y-46093750D01*
X85691750Y-49131750D02*
X84659750Y-49131750D01*
X84659750Y-49131750D02*
X84421750Y-49369750D01*
X65879750Y-51639750D02*
X67657750Y-51639750D01*
X67657750Y-51639750D02*
X69435750Y-51639750D01*
X83897750Y-49893750D02*
X83897750Y-50639750D01*
X84421750Y-49369750D02*
X83897750Y-49893750D01*
X79185750Y-51671750D02*
X82865750Y-51671750D01*
X82865750Y-51671750D02*
X83897750Y-50639750D01*
X69435750Y-51893750D02*
X70213750Y-51893750D01*
X71435750Y-50671750D02*
X72385750Y-50671750D01*
X70213750Y-51893750D02*
X71435750Y-50671750D01*
X75285750Y-47583750D02*
X75785750Y-47083750D01*
X75285750Y-49271750D02*
X75285750Y-47583750D01*
X77817750Y-39977750D02*
X77293750Y-39453750D01*
X72385750Y-54671750D02*
X71499750Y-54671750D01*
X70959750Y-57685750D02*
X71787750Y-58513750D01*
X70959750Y-55211750D02*
X70959750Y-57685750D01*
X71499750Y-54671750D02*
X70959750Y-55211750D01*
X81883750Y-40280000D02*
X78120000Y-40280000D01*
X78120000Y-40280000D02*
X77293750Y-39453750D01*
X100933750Y-40280000D02*
X100933750Y-44287750D01*
X98899750Y-48353750D02*
X96867750Y-50385750D01*
X100933750Y-44287750D02*
X99661750Y-45559750D01*
X96867750Y-50385750D02*
X96851750Y-50385750D01*
X96851750Y-50385750D02*
X96851750Y-55465750D01*
X92369253Y-53137882D02*
X94523882Y-53137882D01*
X94523882Y-53137882D02*
X96851750Y-50810014D01*
X96851750Y-50810014D02*
X96851750Y-50385750D01*
X94523882Y-53137882D02*
X96851750Y-55465750D01*
X94851750Y-55465750D02*
X91115750Y-55465750D01*
X91115750Y-55465750D02*
X91025750Y-55375750D01*
X91237882Y-54269253D02*
X89575253Y-54269253D01*
X87977750Y-52671750D02*
X79185750Y-52671750D01*
X89575253Y-54269253D02*
X87977750Y-52671750D01*
X91237882Y-54269253D02*
X91237882Y-55163618D01*
X91237882Y-55163618D02*
X91025750Y-55375750D01*
D33*
X106391750Y-92295750D02*
X106391750Y-92391750D01*
X106391750Y-92391750D02*
X107593750Y-93593750D01*
X107593750Y-93593750D02*
X107533750Y-94125000D01*
X107593750Y-91593750D02*
X107593750Y-94065000D01*
X107593750Y-94065000D02*
X107533750Y-94125000D01*
X106093750Y-92295750D02*
X106391750Y-92295750D01*
X106391750Y-92295750D02*
X107593750Y-91093750D01*
X111345750Y-86093750D02*
X111345750Y-87341750D01*
X111345750Y-87341750D02*
X107593750Y-91093750D01*
X107593750Y-91093750D02*
X107593750Y-91593750D01*
X107593750Y-91593750D02*
X107593750Y-92093750D01*
X107533750Y-75080000D02*
X107533750Y-70253750D01*
X107593750Y-70293750D02*
X107593750Y-70193750D01*
X107573750Y-70293750D02*
X107593750Y-70293750D01*
X107533750Y-70253750D02*
X107573750Y-70293750D01*
X103943750Y-73499750D02*
X104287750Y-73499750D01*
X104287750Y-73499750D02*
X107593750Y-70193750D01*
X107593750Y-70193750D02*
X111599750Y-66187750D01*
X91279750Y-36939750D02*
X97947750Y-36939750D01*
X97947750Y-36939750D02*
X99233750Y-35653750D01*
D31*
X85691750Y-51131750D02*
X87555750Y-51131750D01*
X87555750Y-51131750D02*
X88093750Y-50593750D01*
X88593750Y-55593750D02*
X88483750Y-55703750D01*
X88483750Y-55703750D02*
X88483750Y-56040000D01*
D33*
X107533750Y-94125000D02*
X110062500Y-94125000D01*
X110062500Y-94125000D02*
X110093750Y-94093750D01*
X107533750Y-94125000D02*
X107533750Y-93563750D01*
X110093750Y-75093750D02*
X110907750Y-75093750D01*
X111345750Y-75531750D02*
X111345750Y-86093750D01*
X110907750Y-75093750D02*
X111345750Y-75531750D01*
X107533750Y-75080000D02*
X110080000Y-75080000D01*
X110080000Y-75080000D02*
X110093750Y-75093750D01*
X110093750Y-56093750D02*
X110703750Y-56093750D01*
X110703750Y-56093750D02*
X111599750Y-56989750D01*
X111599750Y-56989750D02*
X111599750Y-66187750D01*
X107533750Y-56040000D02*
X110040000Y-56040000D01*
X110040000Y-56040000D02*
X110093750Y-56093750D01*
X108593750Y-50093750D02*
X108593750Y-53137750D01*
X107533750Y-54197750D02*
X107533750Y-56040000D01*
X108593750Y-53137750D02*
X107533750Y-54197750D01*
X110329750Y-36939750D02*
X110939750Y-36939750D01*
X110939750Y-36939750D02*
X111593750Y-37593750D01*
X111593750Y-37593750D02*
X111593750Y-47093750D01*
X111593750Y-47093750D02*
X108593750Y-50093750D01*
X88483750Y-75080000D02*
X88483750Y-74263750D01*
X107533750Y-74005750D02*
X107533750Y-75080000D01*
X107027750Y-73499750D02*
X107533750Y-74005750D01*
X89247750Y-73499750D02*
X103943750Y-73499750D01*
X103943750Y-73499750D02*
X106519750Y-73499750D01*
X106519750Y-73499750D02*
X107027750Y-73499750D01*
X88483750Y-74263750D02*
X89247750Y-73499750D01*
X69433750Y-74259750D02*
X69437750Y-74259750D01*
X88483750Y-74259750D02*
X88483750Y-75080000D01*
X87723750Y-73499750D02*
X88483750Y-74259750D01*
X70197750Y-73499750D02*
X87723750Y-73499750D01*
X69437750Y-74259750D02*
X70197750Y-73499750D01*
X50383750Y-75080000D02*
X50383750Y-74009750D01*
X69433750Y-74259750D02*
X69433750Y-75080000D01*
X68673750Y-73499750D02*
X69433750Y-74259750D01*
X50893750Y-73499750D02*
X68673750Y-73499750D01*
X50383750Y-74009750D02*
X50893750Y-73499750D01*
X88483750Y-94125000D02*
X88483750Y-93059750D01*
X89247750Y-92295750D02*
X106093750Y-92295750D01*
X106093750Y-92295750D02*
X106265750Y-92295750D01*
X88483750Y-93059750D02*
X89247750Y-92295750D01*
X69433750Y-94125000D02*
X69433750Y-93313750D01*
X88483750Y-93055750D02*
X88483750Y-94125000D01*
X87723750Y-92295750D02*
X88483750Y-93055750D01*
X70451750Y-92295750D02*
X87723750Y-92295750D01*
X69433750Y-93313750D02*
X70451750Y-92295750D01*
X50383750Y-94125000D02*
X50383750Y-93567750D01*
X50383750Y-93567750D02*
X51655750Y-92295750D01*
X69433750Y-93309750D02*
X69433750Y-94125000D01*
X68419750Y-92295750D02*
X69433750Y-93309750D01*
X51655750Y-92295750D02*
X68419750Y-92295750D01*
X73499750Y-79865750D02*
X72499750Y-79865750D01*
X71975750Y-77055750D02*
X70000000Y-75080000D01*
X72499750Y-79865750D02*
X71975750Y-79341750D01*
X70000000Y-75080000D02*
X69433750Y-75080000D01*
X90533750Y-57751750D02*
X90195500Y-57751750D01*
X90195500Y-57751750D02*
X88483750Y-56040000D01*
D31*
X69433750Y-56987750D02*
X69433750Y-56040000D01*
X70451750Y-58005750D02*
X69433750Y-56987750D01*
D33*
X69433750Y-56040000D02*
X68740000Y-56040000D01*
X68740000Y-56040000D02*
X67911750Y-55211750D01*
X60545750Y-56227750D02*
X60529750Y-56243750D01*
X60529750Y-56243750D02*
X58767750Y-56243750D01*
X50383750Y-75080000D02*
X53139500Y-75080000D01*
X53139500Y-75080000D02*
X53179750Y-75039750D01*
X53179750Y-55989750D02*
X50434000Y-55989750D01*
X50434000Y-55989750D02*
X50383750Y-56040000D01*
D32*
X91093750Y-75093750D02*
X88497500Y-75093750D01*
X88497500Y-75093750D02*
X88483750Y-75080000D01*
D31*
X50383750Y-94125000D02*
X53062500Y-94125000D01*
X53062500Y-94125000D02*
X53093750Y-94093750D01*
X69433750Y-94125000D02*
X72062500Y-94125000D01*
X72062500Y-94125000D02*
X72093750Y-94093750D01*
X88483750Y-94125000D02*
X91062500Y-94125000D01*
X91062500Y-94125000D02*
X91093750Y-94093750D01*
X110093750Y-94093750D02*
X107565000Y-94093750D01*
X107565000Y-94093750D02*
X107533750Y-94125000D01*
X110093750Y-75093750D02*
X110593750Y-75093750D01*
X110080000Y-75080000D02*
X110093750Y-75093750D01*
X110040000Y-56040000D02*
X110093750Y-56093750D01*
X111593750Y-37593750D02*
X110939750Y-36939750D01*
X111593750Y-47093750D02*
X111593750Y-37593750D01*
X108593750Y-50093750D02*
X111593750Y-47093750D01*
X105593750Y-50093750D02*
X108593750Y-50093750D01*
X69435750Y-49639750D02*
X67657750Y-49639750D01*
X67657750Y-49639750D02*
X65879750Y-49639750D01*
X79185750Y-51171750D02*
X81365750Y-51171750D01*
X81365750Y-51171750D02*
X81897750Y-50639750D01*
X72385750Y-50171750D02*
X69713750Y-50171750D01*
X69713750Y-50171750D02*
X69435750Y-49893750D01*
X75465750Y-66133750D02*
X75465750Y-63781750D01*
X72385750Y-57145750D02*
X72385750Y-55171750D01*
X72483750Y-57243750D02*
X72385750Y-57145750D01*
X75465750Y-63781750D02*
X72483750Y-60799750D01*
D33*
X91279750Y-36939750D02*
X91279750Y-36923750D01*
X106207500Y-35653750D02*
X107533750Y-36980000D01*
X99233750Y-35653750D02*
X106207500Y-35653750D01*
X88483750Y-36980000D02*
X91239500Y-36980000D01*
X91239500Y-36980000D02*
X91279750Y-36939750D01*
X88501750Y-35145750D02*
X88501750Y-36962000D01*
X88501750Y-36962000D02*
X88483750Y-36980000D01*
X87469750Y-34637750D02*
X87993750Y-34637750D01*
X69433750Y-35655750D02*
X70451750Y-34637750D01*
X70451750Y-34637750D02*
X87469750Y-34637750D01*
X69433750Y-36980000D02*
X69433750Y-35655750D01*
X87993750Y-34637750D02*
X88501750Y-35145750D01*
X50383750Y-36980000D02*
X53139500Y-36980000D01*
X53139500Y-36980000D02*
X54465750Y-35653750D01*
X54465750Y-35653750D02*
X60545750Y-35653750D01*
X60545750Y-35653750D02*
X68107500Y-35653750D01*
X68107500Y-35653750D02*
X69433750Y-36980000D01*
X107533750Y-36980000D02*
X110289500Y-36980000D01*
X110289500Y-36980000D02*
X110329750Y-36939750D01*
D31*
X72385750Y-50171750D02*
X72385750Y-47943750D01*
X72385750Y-47943750D02*
X72737750Y-47591750D01*
X73785750Y-49271750D02*
X73785750Y-48639750D01*
X73785750Y-48639750D02*
X72737750Y-47591750D01*
D33*
X72737750Y-41241750D02*
X72737750Y-47591750D01*
X74093750Y-39885750D02*
X72737750Y-41241750D01*
X74093750Y-39453750D02*
X74093750Y-39885750D01*
D31*
X75785750Y-48493750D02*
X75785750Y-48001750D01*
X76493750Y-45993750D02*
X77451750Y-45035750D01*
X76493750Y-47293750D02*
X76493750Y-45993750D01*
X75785750Y-48001750D02*
X76493750Y-47293750D01*
X77451750Y-45035750D02*
X77817750Y-45035750D01*
X75785750Y-48493750D02*
X75785750Y-49271750D01*
D33*
X46321750Y-49115750D02*
X45615750Y-49115750D01*
X45615750Y-49115750D02*
X44563750Y-48063750D01*
X44563750Y-48063750D02*
X45269750Y-48063750D01*
X45269750Y-48063750D02*
X46321750Y-49115750D01*
X46321750Y-49115750D02*
X53863750Y-49115750D01*
X53863750Y-49115750D02*
X54449750Y-48529750D01*
D31*
X83013750Y-45813750D02*
X84173750Y-45813750D01*
X82293750Y-45093750D02*
X83013750Y-45813750D01*
D32*
X68393750Y-48607750D02*
X66507750Y-48607750D01*
X59693750Y-46093750D02*
X58767750Y-45167750D01*
X61893750Y-46093750D02*
X59693750Y-46093750D01*
X64493750Y-46093750D02*
X61893750Y-46093750D01*
X65593750Y-47193750D02*
X64493750Y-46093750D01*
X65593750Y-47693750D02*
X65593750Y-47193750D01*
X66507750Y-48607750D02*
X65593750Y-47693750D01*
X58767750Y-45167750D02*
X58767750Y-45129750D01*
D31*
X56735750Y-45813750D02*
X56227750Y-45305750D01*
X56735750Y-50639750D02*
X56735750Y-45813750D01*
X56735750Y-45813750D02*
X57419750Y-45129750D01*
X72385750Y-52671750D02*
X70959750Y-52671750D01*
X57243750Y-53179750D02*
X56735750Y-52671750D01*
X70451750Y-53179750D02*
X57243750Y-53179750D01*
X70959750Y-52671750D02*
X70451750Y-53179750D01*
X70705750Y-48861750D02*
X70451750Y-48607750D01*
X70451750Y-48607750D02*
X68393750Y-48607750D01*
D32*
X59197750Y-45559750D02*
X58767750Y-45129750D01*
X58767750Y-45129750D02*
X57419750Y-45129750D01*
X57419750Y-45129750D02*
X54449750Y-45129750D01*
X93311750Y-43605750D02*
X91963750Y-43605750D01*
X91963750Y-43605750D02*
X91025750Y-44543750D01*
X91025750Y-44543750D02*
X87469750Y-44543750D01*
X87469750Y-44543750D02*
X86199750Y-45813750D01*
X86199750Y-45813750D02*
X84293750Y-45813750D01*
D33*
X93311750Y-43605750D02*
X96359750Y-43605750D01*
X44563750Y-67113750D02*
X41635750Y-67113750D01*
X41635750Y-67113750D02*
X41241750Y-66719750D01*
X98391750Y-70119750D02*
X79341750Y-70119750D01*
X79341750Y-70119750D02*
X60291750Y-70119750D01*
X60291750Y-70119750D02*
X41241750Y-70119750D01*
D32*
X41443750Y-83793750D02*
X42193750Y-83793750D01*
X42193750Y-83793750D02*
X44563750Y-86163750D01*
D33*
X41443750Y-87193750D02*
X41443750Y-87443750D01*
X41443750Y-87443750D02*
X43169750Y-89169750D01*
X43169750Y-89169750D02*
X60291750Y-89169750D01*
X60291750Y-89169750D02*
X79341750Y-89169750D01*
X79341750Y-89169750D02*
X98391750Y-89169750D01*
X47393750Y-107593750D02*
X46943750Y-107593750D01*
X46943750Y-107593750D02*
X44563750Y-105213750D01*
X60291750Y-107457750D02*
X79087750Y-107457750D01*
X79087750Y-107457750D02*
X79341750Y-107711750D01*
X50793750Y-107593750D02*
X60155750Y-107593750D01*
X60155750Y-107593750D02*
X60291750Y-107457750D01*
X98391750Y-107711750D02*
X79341750Y-107711750D01*
X79341750Y-107711750D02*
X79087750Y-107457750D01*
X58767750Y-48529750D02*
X63147750Y-48529750D01*
X63147750Y-48529750D02*
X63613750Y-48063750D01*
X63613750Y-67113750D02*
X60685750Y-67113750D01*
X60685750Y-67113750D02*
X60291750Y-66719750D01*
X63613750Y-86163750D02*
X60685750Y-86163750D01*
X60685750Y-86163750D02*
X60291750Y-85769750D01*
X63613750Y-105213750D02*
X61447750Y-105213750D01*
X61447750Y-105213750D02*
X60291750Y-104057750D01*
X82663750Y-48063750D02*
X86598752Y-48063750D01*
X91455750Y-48861750D02*
X93311750Y-47005750D01*
X87396752Y-48861750D02*
X91455750Y-48861750D01*
X86598752Y-48063750D02*
X87396752Y-48861750D01*
X82663750Y-48063750D02*
X83949750Y-48063750D01*
X82663750Y-48063750D02*
X82663750Y-48119750D01*
X85691750Y-66973750D02*
X82803750Y-66973750D01*
X82803750Y-66973750D02*
X82663750Y-67113750D01*
X82663750Y-86163750D02*
X79735750Y-86163750D01*
X79735750Y-86163750D02*
X79341750Y-85769750D01*
X82663750Y-105213750D02*
X80243750Y-105213750D01*
X80243750Y-105213750D02*
X79341750Y-104311750D01*
X96359750Y-47005750D02*
X100655750Y-47005750D01*
X100655750Y-47005750D02*
X101713750Y-48063750D01*
X101713750Y-67113750D02*
X98785750Y-67113750D01*
X98785750Y-67113750D02*
X98391750Y-66719750D01*
X101713750Y-86163750D02*
X98785750Y-86163750D01*
X98785750Y-86163750D02*
X98391750Y-85769750D01*
X101713750Y-105213750D02*
X99293750Y-105213750D01*
X99293750Y-105213750D02*
X98391750Y-104311750D01*
X74007750Y-43085750D02*
X74007750Y-42511750D01*
X74893750Y-41625750D02*
X74893750Y-39453750D01*
X74007750Y-42511750D02*
X74893750Y-41625750D01*
X75693750Y-39453750D02*
X75693750Y-42993750D01*
X75693750Y-42993750D02*
X75785750Y-43085750D01*
D32*
X71975750Y-71721750D02*
X51655750Y-71721750D01*
D31*
X74785750Y-57093750D02*
X74785750Y-57785750D01*
X74785750Y-57785750D02*
X75093750Y-58093750D01*
X74785750Y-57093750D02*
X74785750Y-56071750D01*
X74285750Y-56071750D02*
X74285750Y-57285750D01*
X74285750Y-57285750D02*
X74293750Y-57293750D01*
X75785750Y-56071750D02*
X75785750Y-56785750D01*
X76093750Y-57093750D02*
X76093750Y-59093750D01*
X75785750Y-56785750D02*
X76093750Y-57093750D01*
D32*
X87093750Y-71593750D02*
X90093750Y-71593750D01*
D31*
X75285750Y-57285750D02*
X75593750Y-57593750D01*
X75285750Y-56071750D02*
X75285750Y-57285750D01*
D33*
X50383750Y-40280000D02*
X59533750Y-40280000D01*
X59533750Y-40280000D02*
X62833750Y-36980000D01*
X81684000Y-36980000D02*
X81627750Y-36923750D01*
X81684000Y-36980000D02*
X81883750Y-36980000D01*
X88483750Y-40280000D02*
X97633750Y-40280000D01*
X97633750Y-40280000D02*
X100933750Y-36980000D01*
X107533750Y-40280000D02*
X107533750Y-39719750D01*
X107533750Y-39719750D02*
X108551750Y-38701750D01*
X41749750Y-55973750D02*
X41816000Y-56040000D01*
X41816000Y-56040000D02*
X43783750Y-56040000D01*
D32*
X43783750Y-56040000D02*
X43783750Y-55717750D01*
D33*
X50383750Y-59340000D02*
X59533750Y-59340000D01*
X59533750Y-59340000D02*
X62833750Y-56040000D01*
X77309750Y-60037750D02*
X79595750Y-60037750D01*
X80357750Y-59275750D02*
X80357750Y-57566000D01*
X79595750Y-60037750D02*
X80357750Y-59275750D01*
X69433750Y-59340000D02*
X70262000Y-59340000D01*
X70262000Y-59340000D02*
X70959750Y-60037750D01*
X70959750Y-60037750D02*
X77309750Y-60037750D01*
X80357750Y-57566000D02*
X81883750Y-56040000D01*
X88483750Y-59340000D02*
X97633750Y-59340000D01*
X97633750Y-59340000D02*
X100933750Y-56040000D01*
X99843750Y-72483750D02*
X104053750Y-72483750D01*
X104053750Y-72483750D02*
X110837750Y-65699750D01*
X43783750Y-75080000D02*
X43783750Y-73497750D01*
X44797750Y-72483750D02*
X99843750Y-72483750D01*
X43783750Y-73497750D02*
X44797750Y-72483750D01*
X43783750Y-75080000D02*
X43783750Y-74767750D01*
X107533750Y-59340000D02*
X109124000Y-59340000D01*
X110837750Y-61053750D02*
X110837750Y-65699750D01*
X109124000Y-59340000D02*
X110837750Y-61053750D01*
X50383750Y-78380000D02*
X59533750Y-78380000D01*
X59533750Y-78380000D02*
X62833750Y-75080000D01*
X69433750Y-78380000D02*
X78583750Y-78380000D01*
X78583750Y-78380000D02*
X81883750Y-75080000D01*
X88483750Y-78380000D02*
X97633750Y-78380000D01*
X97633750Y-78380000D02*
X100933750Y-75080000D01*
D32*
X104593750Y-91593750D02*
X104593750Y-91533750D01*
X104653750Y-91533750D02*
X104593750Y-91593750D01*
X105653750Y-91533750D02*
X104653750Y-91533750D01*
X108593750Y-88593750D02*
X105653750Y-91533750D01*
D33*
X107533750Y-78380000D02*
X108352000Y-78380000D01*
X108352000Y-78380000D02*
X109567750Y-79595750D01*
X104593750Y-91533750D02*
X46375000Y-91533750D01*
X46375000Y-91533750D02*
X43783750Y-94125000D01*
X50383750Y-97425000D02*
X59533750Y-97425000D01*
X59533750Y-97425000D02*
X62833750Y-94125000D01*
X69433750Y-97425000D02*
X78583750Y-97425000D01*
X78583750Y-97425000D02*
X81883750Y-94125000D01*
X88483750Y-97425000D02*
X97633750Y-97425000D01*
X97633750Y-97425000D02*
X100933750Y-94125000D01*
D31*
X79185750Y-50671750D02*
X79817750Y-50671750D01*
X79817750Y-50671750D02*
X80611750Y-49877750D01*
X73565750Y-64797750D02*
X73753750Y-64609750D01*
X73565750Y-66133750D02*
X73565750Y-64797750D01*
D32*
X73565750Y-66133750D02*
X73565750Y-68505750D01*
X73565750Y-68505750D02*
X73631750Y-68571750D01*
D31*
X73285750Y-56071750D02*
X73285750Y-58111750D01*
X73285750Y-58111750D02*
X73687750Y-58513750D01*
X74007750Y-44985750D02*
X74007750Y-47591750D01*
X74007750Y-47591750D02*
X74285750Y-47869750D01*
X74285750Y-49271750D02*
X74285750Y-47869750D01*
X74785750Y-49271750D02*
X74785750Y-46813750D01*
X75785750Y-45813750D02*
X75785750Y-44985750D01*
X74785750Y-46813750D02*
X75785750Y-45813750D01*
X77643750Y-46543750D02*
X77443750Y-46543750D01*
X77443750Y-46543750D02*
X76893750Y-47093750D01*
X76893750Y-47093750D02*
X76893750Y-47493750D01*
X76893750Y-47493750D02*
X76285750Y-48101750D01*
X76285750Y-48101750D02*
X76285750Y-49271750D01*
X76785750Y-49271750D02*
X76785750Y-48401750D01*
X76785750Y-48401750D02*
X77143750Y-48043750D01*
X77143750Y-48043750D02*
X77643750Y-48043750D01*
X78843750Y-46543750D02*
X78793750Y-46593750D01*
X78843750Y-46543750D02*
X78893750Y-46543750D01*
X78893750Y-48043750D02*
X78893750Y-47993750D01*
X78285750Y-49271750D02*
X78715750Y-49271750D01*
X80093750Y-46593750D02*
X80143750Y-46543750D01*
X78715750Y-49271750D02*
X78893750Y-49093750D01*
X79185750Y-50171750D02*
X79185750Y-49801750D01*
X80143750Y-48843750D02*
X80143750Y-48043750D01*
X79185750Y-49801750D02*
X80143750Y-48843750D01*
X79185750Y-55171750D02*
X80271750Y-55171750D01*
X83393750Y-54293750D02*
X83393750Y-54093750D01*
X80271750Y-55171750D02*
X80293750Y-55193750D01*
X72385750Y-52171750D02*
X70697750Y-52171750D01*
X68165750Y-52671750D02*
X66593750Y-52671750D01*
X70197750Y-52671750D02*
X68165750Y-52671750D01*
X70697750Y-52171750D02*
X70197750Y-52671750D01*
X66593750Y-52671750D02*
X66387750Y-52671750D01*
X66593750Y-52671750D02*
X63171750Y-52671750D01*
D33*
X42207500Y-36980000D02*
X40593750Y-38593750D01*
X40593750Y-38593750D02*
X40593750Y-49593750D01*
X40593750Y-49593750D02*
X42593750Y-51593750D01*
X42593750Y-51593750D02*
X62093750Y-51593750D01*
X42207500Y-36980000D02*
X43783750Y-36980000D01*
D31*
X63171750Y-52671750D02*
X62093750Y-51593750D01*
X79185750Y-53171750D02*
X84971750Y-53171750D01*
X84971750Y-53171750D02*
X85893750Y-54093750D01*
X79185750Y-53671750D02*
X79971750Y-53671750D01*
X84593750Y-54093750D02*
X84643750Y-54093750D01*
X79971750Y-53671750D02*
X79993750Y-53693750D01*
X79185750Y-54171750D02*
X80815750Y-54171750D01*
X80815750Y-54171750D02*
X80893750Y-54093750D01*
X79185750Y-54671750D02*
X80071750Y-54671750D01*
X82093750Y-54093750D02*
X82143750Y-54093750D01*
X80071750Y-54671750D02*
X80093750Y-54693750D01*
M02*
