G04 #@! TF.FileFunction,Other,ECO2*
%FSLAX46Y46*%
G04 Gerber Fmt 4.6, Leading zero omitted, Abs format (unit mm)*
G04 Created by KiCad (PCBNEW 4.0.5) date 02/28/17 13:31:52*
%MOMM*%
%LPD*%
G01*
G04 APERTURE LIST*
%ADD10C,0.100000*%
%ADD11C,0.152400*%
G04 APERTURE END LIST*
D10*
D11*
X54068750Y-50258750D02*
X40098750Y-50258750D01*
X40098750Y-50258750D02*
X40098750Y-36288750D01*
X40098750Y-36288750D02*
X54068750Y-36288750D01*
X54068750Y-36288750D02*
X54068750Y-50258750D01*
X54068750Y-69308750D02*
X40098750Y-69308750D01*
X40098750Y-69308750D02*
X40098750Y-55338750D01*
X40098750Y-55338750D02*
X54068750Y-55338750D01*
X54068750Y-55338750D02*
X54068750Y-69308750D01*
X54068750Y-88358750D02*
X40098750Y-88358750D01*
X40098750Y-88358750D02*
X40098750Y-74388750D01*
X40098750Y-74388750D02*
X54068750Y-74388750D01*
X54068750Y-74388750D02*
X54068750Y-88358750D01*
X54068750Y-107408750D02*
X40098750Y-107408750D01*
X40098750Y-107408750D02*
X40098750Y-93438750D01*
X40098750Y-93438750D02*
X54068750Y-93438750D01*
X54068750Y-93438750D02*
X54068750Y-107408750D01*
X73118750Y-50258750D02*
X59148750Y-50258750D01*
X59148750Y-50258750D02*
X59148750Y-36288750D01*
X59148750Y-36288750D02*
X73118750Y-36288750D01*
X73118750Y-36288750D02*
X73118750Y-50258750D01*
X73118750Y-69308750D02*
X59148750Y-69308750D01*
X59148750Y-69308750D02*
X59148750Y-55338750D01*
X59148750Y-55338750D02*
X73118750Y-55338750D01*
X73118750Y-55338750D02*
X73118750Y-69308750D01*
X73118750Y-88358750D02*
X59148750Y-88358750D01*
X59148750Y-88358750D02*
X59148750Y-74388750D01*
X59148750Y-74388750D02*
X73118750Y-74388750D01*
X73118750Y-74388750D02*
X73118750Y-88358750D01*
X73118750Y-107408750D02*
X59148750Y-107408750D01*
X59148750Y-107408750D02*
X59148750Y-93438750D01*
X59148750Y-93438750D02*
X73118750Y-93438750D01*
X73118750Y-93438750D02*
X73118750Y-107408750D01*
X92168750Y-50258750D02*
X78198750Y-50258750D01*
X78198750Y-50258750D02*
X78198750Y-36288750D01*
X78198750Y-36288750D02*
X92168750Y-36288750D01*
X92168750Y-36288750D02*
X92168750Y-50258750D01*
X92168750Y-69308750D02*
X78198750Y-69308750D01*
X78198750Y-69308750D02*
X78198750Y-55338750D01*
X78198750Y-55338750D02*
X92168750Y-55338750D01*
X92168750Y-55338750D02*
X92168750Y-69308750D01*
X92168750Y-88358750D02*
X78198750Y-88358750D01*
X78198750Y-88358750D02*
X78198750Y-74388750D01*
X78198750Y-74388750D02*
X92168750Y-74388750D01*
X92168750Y-74388750D02*
X92168750Y-88358750D01*
X92168750Y-107408750D02*
X78198750Y-107408750D01*
X78198750Y-107408750D02*
X78198750Y-93438750D01*
X78198750Y-93438750D02*
X92168750Y-93438750D01*
X92168750Y-93438750D02*
X92168750Y-107408750D01*
X111218750Y-50258750D02*
X97248750Y-50258750D01*
X97248750Y-50258750D02*
X97248750Y-36288750D01*
X97248750Y-36288750D02*
X111218750Y-36288750D01*
X111218750Y-36288750D02*
X111218750Y-50258750D01*
X111218750Y-69308750D02*
X97248750Y-69308750D01*
X97248750Y-69308750D02*
X97248750Y-55338750D01*
X97248750Y-55338750D02*
X111218750Y-55338750D01*
X111218750Y-55338750D02*
X111218750Y-69308750D01*
X111218750Y-88358750D02*
X97248750Y-88358750D01*
X97248750Y-88358750D02*
X97248750Y-74388750D01*
X97248750Y-74388750D02*
X111218750Y-74388750D01*
X111218750Y-74388750D02*
X111218750Y-88358750D01*
X111218750Y-107408750D02*
X97248750Y-107408750D01*
X97248750Y-107408750D02*
X97248750Y-93438750D01*
X97248750Y-93438750D02*
X111218750Y-93438750D01*
X111218750Y-93438750D02*
X111218750Y-107408750D01*
M02*
